<?xml version="1.0" encoding="UTF-8" standalone="no"?>
<!-- Created with Inkscape (http://www.inkscape.org/) -->
<svg id="svg6596" xmlns:rdf="http://www.w3.org/1999/02/22-rdf-syntax-ns#" xmlns="http://www.w3.org/2000/svg" height="48" viewBox="0 0 48 48" width="48" version="1.1" xmlns:cc="http://creativecommons.org/ns#" xmlns:dc="http://purl.org/dc/elements/1.1/">
 <metadata id="metadata6601">
  <rdf:RDF>
   <cc:Work rdf:about="">
    <dc:format>image/svg+xml</dc:format>
    <dc:type rdf:resource="http://purl.org/dc/dcmitype/StillImage"/>
    <dc:title/>
   </cc:Work>
  </rdf:RDF>
 </metadata>
 <g id="layer3">
  <path id="path7173" d="m10.84 43.555c0-0.06482-0.07778-0.11784-0.17284-0.11784-0.22445 0-1.0056-0.78114-1.0056-1.0056 0-0.09506-0.05304-0.17284-0.11784-0.17284-0.0738 0-0.11784-0.7267-0.11784-1.9444v-1.9444h-1.5396-1.5396l0.037059-10.213c0.029165-8.0392 0.068428-10.224 0.18438-10.262 0 0 1.0083-8.3476 1.68-11.912 0.046831-0.2485 0.14118-0.41257 0.23496-0.60886 0.12029-0.25177 0.24881-0.5034 0.41819-0.72513 0.33078-0.43302 0.73995-0.80315 1.1514-1.1604 0.09905-0.085978 0.20526-0.16406 0.31548-0.23516 0.17808-0.11487 0.36713-0.21222 0.5563-0.30772 0.12662-0.063923 0.26116-0.11151 0.38682-0.17729 0.06068-0.031767 0.11879-0.068267 0.17677-0.10473 0.05995-0.037703 0.11552-0.0823 0.17677-0.11784 0.07597-0.044087 0.15638-0.080072 0.23568-0.11784 0.07787-0.037091 0.15518-0.075837 0.23569-0.10679 0.19241-0.073967 0.39281-0.12521 0.58921-0.18782 0.19641-0.062608 0.39408-0.12138 0.58922-0.18783 0.09888-0.033665 0.197-0.069586 0.2946-0.10679 0.09883-0.037668 0.1953-0.081464 0.29461-0.11784 0.11664-0.042725 0.23509-0.080379 0.35353-0.11784 0.11729-0.037103 0.23459-0.074504 0.35353-0.10588 0.27274-0.071958 0.54994-0.12581 0.8249-0.18872 0.27497-0.062908 0.54981-0.12636 0.8249-0.18873 0.15705-0.035605 0.31468-0.068705 0.47137-0.10588 0.15758-0.037392 0.3131-0.083485 0.47138-0.11784 0.21144-0.045902 0.42518-0.080579 0.63832-0.11784 0.2255-0.039428 0.45123-0.077769 0.6776-0.11187 0.47369-0.071368 0.94916-0.13038 1.4239-0.19406 0.46142-0.06189 0.92072-0.14396 1.3847-0.18273 0.94006-0.078558 1.2727-0.10055 2.8282-0.10055s2.773 0.09807 2.8282 0.10055c0 0 0.92324 0.12084 1.3847 0.18273 0.47478 0.063681 0.95025 0.12269 1.4239 0.19406 0.22637 0.034105 0.45209 0.072446 0.67759 0.11187 0.21314 0.037265 0.42688 0.071943 0.63832 0.11784 0.15828 0.03436 0.31379 0.080453 0.47138 0.11784 0.15669 0.037179 0.31432 0.07028 0.47137 0.10588 0.27509 0.062365 0.54994 0.12582 0.8249 0.18873 0.27497 0.062908 0.55216 0.11676 0.8249 0.18872 0.11895 0.031381 0.23625 0.068783 0.35353 0.10588 0.11843 0.037465 0.23689 0.075119 0.35353 0.11784 0.09932 0.03638 0.19578 0.080177 0.29461 0.11784 0.09761 0.037199 0.19573 0.07312 0.2946 0.10679 0.19514 0.066442 0.39281 0.12522 0.58922 0.18783 0.1964 0.062607 0.3968 0.11385 0.58922 0.18782 0.08051 0.030948 0.15782 0.069695 0.23569 0.10679 0.0793 0.037772 0.15971 0.073757 0.23568 0.11784 0.06125 0.035544 0.11682 0.080142 0.17677 0.11784 0.05797 0.036463 0.11609 0.072963 0.17677 0.10473 0.12566 0.065787 0.2602 0.11337 0.38682 0.17729 0.18918 0.095503 0.37777 0.19357 0.55631 0.30772 0.11173 0.071432 0.22084 0.14814 0.32091 0.23516 0.43668 0.37972 0.84269 0.79766 1.2107 1.2443 0.04381 0.053177 0.0827 0.11056 0.11784 0.16984 0.04479 0.075555 0.07856 0.15712 0.11784 0.23568 0.03928 0.078562 0.07274 0.16031 0.11784 0.23569 0.03497 0.058453 0.08198 0.10903 0.11784 0.16695 0.0411 0.066386 0.08678 0.13203 0.1111 0.20622 1.261 3.8478 1.1647 8.4733 1.686 12.03 0.11596 0.03863 0.1553 2.2351 0.18486 10.321l0.03751 10.272h-1.5401-1.54v1.9444c0 1.2177-0.04405 1.9444-0.11784 1.9444-0.06479 0-0.11784 0.07778-0.11784 0.17284 0 0.22445-0.78114 1.0056-1.0056 1.0056-0.09506 0-0.17284 0.05303-0.17284 0.11784 0 0.06874-0.39281 0.11784-0.94275 0.11784-0.54993 0-0.94274-0.0491-0.94274-0.11784 0-0.06482-0.13017-0.11784-0.28926-0.11784-0.31589 0-0.88918-0.49731-0.88918-0.77134 0-0.09427-0.05304-0.17141-0.11784-0.17141-0.06478 0-0.11784-0.10606-0.11784-0.23569s-0.05304-0.23569-0.11784-0.23569c-0.0735 0-0.11784-0.68742-0.11784-1.8266v-1.8266h-9.781-9.781v1.8266c0 1.1392-0.04436 1.8266-0.11784 1.8266-0.06479 0-0.11784 0.10606-0.11784 0.23569s-0.05304 0.23569-0.11784 0.23569c-0.06479 0-0.11784 0.07714-0.11784 0.17141 0 0.22206-0.54927 0.77134-0.77134 0.77134-0.09428 0-0.17141 0.05303-0.17141 0.11784 0 0.06984-0.43209 0.11784-1.0606 0.11784-0.6285 0-1.0606-0.04801-1.0606-0.11784zm3.6506-13.378c0.06153-0.552-0.03901-1.1854-0.38276-1.6217-0.52381-0.66478-1.4198-1.146-2.2662-1.1451-0.79804 0.000871-1.646 0.45328-2.1345 1.0844-0.37909 0.48984-0.48441 1.2013-0.39918 1.8148 0.08668 0.62391 0.42408 1.2452 0.89367 1.665 0.45916 0.4105 1.0995 0.69284 1.7153 0.68676 0.62126-0.0062 1.2655-0.29933 1.7163-0.72679 0.47298-0.44844 0.78501-1.1097 0.85722-1.7574zm22.982 2.3005c0-0.06479 0.05546-0.11784 0.1232-0.11784 0.06776 0 0.25081-0.11932 0.40678-0.26514 0.15597-0.14584 0.36567-0.33353 0.46601-0.4171 0.10035-0.08357 0.18244-0.25592 0.18244-0.38299s0.05304-0.23104 0.11784-0.23104c0.06478 0 0.11784-0.13257 0.11784-0.2946s0.05304-0.29461 0.11784-0.29461c0.06478 0 0.11784-0.1856 0.11784-0.41245s-0.05304-0.41245-0.11784-0.41245c-0.06479 0-0.11784-0.1856-0.11784-0.41245s-0.04946-0.41246-0.1099-0.41246c-0.06042 0-0.14699-0.11684-0.19231-0.25965-0.10452-0.3293-0.33852-0.56526-0.56059-0.56526-0.09491 0-0.2031-0.07954-0.24041-0.17676-0.04261-0.11095-0.22278-0.17677-0.48398-0.17677-0.22888 0-0.41615-0.05304-0.41615-0.11784 0-0.06478-0.1856-0.11784-0.41245-0.11784-0.22686 0-0.41246 0.04606-0.41246 0.10233 0 0.05631-0.20884 0.13034-0.46409 0.16457-0.34217 0.04586-0.58984 0.19053-0.94275 0.55057-0.26326 0.26858-0.47866 0.56573-0.47866 0.66033s-0.05304 0.172-0.11784 0.172c-0.06933 0-0.11784 0.41245-0.11784 1.0017 0 0.58922 0.04854 1.0017 0.11784 1.0017 0.06478 0 0.11784 0.08371 0.11784 0.18601 0 0.20503 0.86099 1.1103 1.056 1.1103 0.06734 0 0.12244 0.05304 0.12244 0.11784 0 0.06984 0.43209 0.11784 1.0606 0.11784 0.62849 0 1.0606-0.04802 1.0606-0.11784zm0.589-11.196s0.3319-0.08371 0.43186-0.20844c0.35933-0.44839 0.39304-0.30667 0.39304-1.6784-0.356-3.604-0.52-7.035-1.414-10.427-0.027-0.1026-0.07-0.2008-0.118-0.2949-0.033-0.0651-0.067-0.1326-0.118-0.1852-0.25-0.259-0.566-0.4546-0.891-0.6113-0.164-0.0795-0.523-0.1052-0.523-0.1616-8.206-0.0002-14.632-0.4754-23.333 0.0153-0.06469 0.00369-0.41297 0.024278-0.6036 0.096162-0.21204 0.079955-0.41386 0.20344-0.57483 0.36294-0.10304 0.10209-0.18436 0.23013-0.23569 0.3658-1.2934 3.4185-1.5106 7.5095-1.6498 10.84 0 1.3717 0.07947 1.3509 0.51657 1.7937 0.07542 0.0764 0.30832 0.09314 0.30832 0.09314 0 0.07789 4.7137 0.11784 13.906 0.11784 9.1918 0 13.906-0.11784 13.906-0.11784zm-5.957-15.702c0.08464-0.081016 0.30642-0.17909 0.40404-0.32062 0.15637-0.22673 0.25316-0.51209 0.25012-0.7875-0.0027-0.24271-0.09507-0.49113-0.23568-0.68899-0.05782-0.081357-0.1539-0.12748-0.23569-0.1847-0.05685-0.039775-0.11843-0.072336-0.17677-0.1099-0.05954-0.038345-0.17677-0.053048-0.17677-0.11784 0-0.077372-7.7777-0.11784-7.7777-0.11784l-7.7777 0.11784s-0.16409 0.044691-0.24265 0.076662c-0.07536 0.03067-0.15238 0.061728-0.21794 0.1099-0.08455 0.062125-0.16993 0.13325-0.21921 0.22588-0.11025 0.20719-0.15701 0.45459-0.14509 0.68899 0.01398 0.27521 0.09706 0.55928 0.2515 0.7875 0.09278 0.1371 0.38299 0.31615 0.38299 0.31615 0.19432 0.21106 15.696 0.21542 15.916 0.00461z" stroke-opacity="0" fill="#b6124a"/>
 </g>
</svg>
