<?xml version="1.0" encoding="UTF-8" standalone="no"?>
<!-- Created with Inkscape (http://www.inkscape.org/) -->
<svg id="svg7753" xmlns:rdf="http://www.w3.org/1999/02/22-rdf-syntax-ns#" xmlns="http://www.w3.org/2000/svg" height="48" viewBox="0 0 48 48" width="48" version="1.1" xmlns:cc="http://creativecommons.org/ns#" xmlns:dc="http://purl.org/dc/elements/1.1/">
 <metadata id="metadata7758">
  <rdf:RDF>
   <cc:Work rdf:about="">
    <dc:format>image/svg+xml</dc:format>
    <dc:type rdf:resource="http://purl.org/dc/dcmitype/StillImage"/>
    <dc:title/>
   </cc:Work>
  </rdf:RDF>
 </metadata>
 <g id="layer1">
  <g id="g8332" stroke-opacity="0" transform="matrix(.31298 0 0 .31298 58.696 12.061)" fill="#b6124a">
   <path id="path8312" d="m-134 56.026c0-0.36147-0.37171-0.60609-0.92096-0.60609-0.50652 0-1.1831-0.36366-1.5034-0.80812-0.32035-0.44447-0.99689-0.80812-1.5034-0.80812-0.50653 0-0.92096-0.18183-0.92096-0.40406s-0.36365-0.40406-0.80812-0.40406c-0.44896 0-0.80812-0.26938-0.80812-0.60609 0-0.36147-0.3717-0.60609-0.92095-0.60609-0.50653 0-1.1831-0.36366-1.5034-0.80812-0.32035-0.44447-0.99689-0.80812-1.5034-0.80812-0.54925 0-0.92095-0.24462-0.92095-0.60609 0-0.33672-0.35917-0.60609-0.80813-0.60609-0.44446 0-0.80812-0.18183-0.80812-0.40406s-0.63639-0.40406-1.4142-0.40406c-0.77782 0-1.4142-0.18183-1.4142-0.40406s-0.45457-0.40406-1.0102-0.40406c-0.62854 0-1.0102-0.22897-1.0102-0.60609s-0.38161-0.60609-1.0102-0.60609c-0.55559 0-1.0102-0.18183-1.0102-0.40406s-0.6364-0.40406-1.4142-0.40406c-0.77782 0-1.4142-0.18183-1.4142-0.40406s-0.6364-0.40406-1.4142-0.40406c-0.9877 0-1.4142-0.18279-1.4142-0.60609 0-0.49834-0.71833-0.60609-4.0406-0.60609h-4.0406v-1.8183c0-1.0001 0.18183-1.8183 0.40406-1.8183 0.22224 0 0.40406-0.81822 0.40406-1.8183s0.18183-1.8183 0.40406-1.8183c0.22224 0 0.40406-0.90914 0.40406-2.0203s0.18183-2.0203 0.40407-2.0203c0.22223 0 0.40406-0.81822 0.40406-1.8183 0-1.3469 0.15713-1.8183 0.60609-1.8183 0.4233 0 0.60609-0.42651 0.60609-1.4142 0-0.77782 0.18183-1.4142 0.40406-1.4142s0.40406-0.81822 0.40406-1.8183 0.18183-1.8183 0.40406-1.8183c0.22224 0 0.40406-0.81822 0.40406-1.8183 0-1.3469 0.15714-1.8183 0.6061-1.8183 0.45793 0 0.60609-0.49385 0.60609-2.0203 0-1.1112 0.18182-2.0203 0.40406-2.0203 0.22223 0 0.40406-0.81822 0.40406-1.8183s0.18183-1.8183 0.40406-1.8183 0.40406-0.6364 0.40406-1.4142c0-0.9877 0.18279-1.4142 0.60609-1.4142 0.44896 0 0.60609-0.4714 0.60609-1.8183 0-1.0001 0.18183-1.8183 0.40407-1.8183 0.22223 0 0.40406-0.6364 0.40406-1.4142 0-1.2391 0.12506-1.4142 1.0102-1.4142 0.55558 0 1.0102 0.18183 1.0102 0.40406s0.36366 0.40406 0.80812 0.40406c0.44896 0 0.80813 0.26937 0.80813 0.60609 0 0.4233 0.4265 0.60609 1.4142 0.60609 0.77782 0 1.4142 0.18183 1.4142 0.40406s0.45457 0.40406 1.0102 0.40406c0.55558 0 1.0102 0.18183 1.0102 0.40406s-0.18183 0.40406-0.40406 0.40406c-0.22224 0-0.40406 0.6364-0.40406 1.4142 0 0.9877-0.18279 1.4142-0.6061 1.4142-0.50361 0-0.60609 0.78567-0.60609 4.6467s0.10248 4.6467 0.60609 4.6467c0.42331 0 0.6061 0.42651 0.6061 1.4142 0 0.77782 0.18182 1.4142 0.40406 1.4142 0.22223 0 0.40406 0.45457 0.40406 1.0102 0 0.55558 0.18183 1.0102 0.40406 1.0102s0.40406 0.45457 0.40406 1.0102c0 0.55558 0.19481 1.0102 0.43292 1.0102 0.65448 0 1.5874 1.0686 1.5874 1.8183 0 0.65324 0.90614 1.8183 1.4142 1.8183 0.33159 0 1.4142 1.0746 1.4142 1.4037 0 0.41812 1.9554 2.2328 2.406 2.2328 0.23234 0 0.42243 0.18183 0.42243 0.40406s0.36365 0.40406 0.80812 0.40406c0.44896 0 0.80812 0.26937 0.80812 0.60609 0 0.33335 0.2326 0.60609 0.51689 0.60609s0.779 0.36366 1.0994 0.80812c0.32035 0.44447 0.99689 0.80812 1.5034 0.80812 0.50652 0 0.92095 0.19482 0.92095 0.43292 0 0.71306 1.0969 1.5874 1.9914 1.5874 0.46034 0 0.83698 0.18183 0.83698 0.40406s0.36366 0.40406 0.80812 0.40406c0.6542 0 0.80812 0.26937 0.80812 1.4142 0 0.77782-0.18182 1.4142-0.40406 1.4142-0.24865 0-0.40406 2.0203-0.40406 5.2528s-0.15541 5.2528-0.40406 5.2528c-0.23089 0-0.40406 1.2122-0.40406 2.8284 0 2.7476-0.0289 2.8284-1.0102 2.8284-0.62854 0-1.0102-0.22897-1.0102-0.60609z"/>
   <path id="path8314" d="m-131.17 27.943c0-0.22223-0.37664-0.40406-0.83698-0.40406-0.89456 0-1.9914-0.87433-1.9914-1.5874 0-0.23811-0.37192-0.43292-0.82649-0.43292-0.85995 0-2.8101-1.6697-2.8101-2.406 0-0.23234-0.1901-0.42243-0.42243-0.42243-0.7363 0-2.406-1.9501-2.406-2.8101 0-0.46528-0.26489-0.82649-0.60609-0.82649-0.37713 0-0.60609-0.38161-0.60609-1.0102 0-0.55558-0.18183-1.0102-0.40407-1.0102-0.24371 0-0.40406-1.6836-0.40406-4.2426 0-2.5591 0.16035-4.2426 0.40406-4.2426 0.22224 0 0.40407-0.36365 0.40407-0.80812 0-0.44896 0.26937-0.80812 0.60609-0.80812 0.33335 0 0.60609 0.18183 0.60609 0.40406s0.6364 0.40406 1.4142 0.40406c0.77782 0 1.4142 0.18183 1.4142 0.40406s0.63639 0.40406 1.4142 0.40406c0.9877 0 1.4142 0.18279 1.4142 0.60609s0.42651 0.60609 1.4142 0.60609c0.77781 0 1.4142 0.18183 1.4142 0.40406s0.55847 0.40406 1.241 0.40406c2.0401 0 2.3955 0.7151 2.3955 4.8199 0 2.1742-0.16438 3.6654-0.40406 3.6654-0.24595 0-0.40406 1.8183-0.40406 4.6467v4.6467h-1.0102c-0.55558 0-1.0102-0.18183-1.0102-0.40406z"/>
   <path id="path8316" d="m-136.83 83.3c0-0.22223-0.6364-0.40406-1.4142-0.40406-0.9877 0-1.4142-0.18279-1.4142-0.60609 0-0.37712-0.38161-0.60609-1.0102-0.60609-0.55559 0-1.0102-0.18183-1.0102-0.40406s-0.36366-0.40406-0.80813-0.40406c-0.44446 0-0.80812-0.18183-0.80812-0.40406s-0.63639-0.40406-1.4142-0.40406c-0.98771 0-1.4142-0.18279-1.4142-0.60609 0-0.37712-0.38161-0.60609-1.0102-0.60609-0.55558 0-1.0102-0.18183-1.0102-0.40406s-0.6364-0.40406-1.4142-0.40406c-0.77782 0-1.4142-0.18183-1.4142-0.40406s-0.36365-0.40406-0.80812-0.40406-0.80812-0.18183-0.80812-0.40406-0.6364-0.40406-1.4142-0.40406c-0.9877 0-1.4142-0.18279-1.4142-0.60609 0-0.37712-0.38161-0.60609-1.0102-0.60609-0.55559 0-1.0102-0.18183-1.0102-0.40406s-0.45457-0.40406-1.0102-0.40406c-0.55558 0-1.0102-0.18183-1.0102-0.40406s-0.63639-0.40406-1.4142-0.40406c-0.98771 0-1.4142-0.18279-1.4142-0.60609 0-0.33672-0.35916-0.60609-0.80812-0.60609-0.44447 0-0.80812-0.18183-0.80812-0.40406s-0.6364-0.40406-1.4142-0.40406c-0.77782 0-1.4142-0.18183-1.4142-0.40406s-0.45457-0.40406-1.0102-0.40406c-0.62854 0-1.0102-0.22897-1.0102-0.60609 0-0.4233-0.42651-0.60609-1.4142-0.60609-0.77781 0-1.4142-0.18183-1.4142-0.40406s-0.36365-0.40406-0.80812-0.40406-0.80812-0.18183-0.80812-0.40406-0.27274-0.40406-0.60609-0.40406c-0.42331 0-0.6061-0.42651-0.6061-1.4142 0-0.9877 0.18279-1.4142 0.6061-1.4142 0.45793 0 0.60609-0.49385 0.60609-2.0203 0-1.1112 0.18182-2.0203 0.40406-2.0203 0.22223 0 0.40406-0.81822 0.40406-1.8183s0.18183-1.8183 0.40406-1.8183 0.40406-0.81822 0.40406-1.8183c0-1.3469 0.15714-1.8183 0.60609-1.8183 0.37713 0 0.60609-0.38161 0.60609-1.0102 0-0.99332 0.0539-1.0102 3.2325-1.0102 2.604 0 3.2325 0.11785 3.2325 0.60609 0 0.46528 0.5163 0.60609 2.2223 0.60609 1.2223 0 2.2223 0.18183 2.2223 0.40406s0.6364 0.40406 1.4142 0.40406c0.77782 0 1.4142 0.18183 1.4142 0.40406s0.90914 0.40406 2.0203 0.40406 2.0203 0.18183 2.0203 0.40406 0.36365 0.40406 0.80812 0.40406c0.44896 0 0.80812 0.26937 0.80812 0.60609 0 0.4233 0.42651 0.60609 1.4142 0.60609 0.77781 0 1.4142 0.18183 1.4142 0.40406s0.45457 0.40406 1.0102 0.40406c0.55559 0 1.0102 0.18183 1.0102 0.40406s0.45457 0.40406 1.0102 0.40406c0.62854 0 1.0102 0.22897 1.0102 0.60609 0 0.33335 0.32351 0.60609 0.71892 0.60609s0.98103 0.36366 1.3014 0.80812c0.32036 0.44447 0.99689 0.80812 1.5034 0.80812 0.54925 0 0.92095 0.24462 0.92095 0.60609s0.3717 0.60609 0.92095 0.60609c0.50653 0 1.1831 0.36366 1.5034 0.80812 0.32035 0.44447 0.99689 0.80812 1.5034 0.80812 0.50652 0 0.92095 0.2326 0.92095 0.51689s0.36366 0.779 0.80813 1.0994c0.68895 0.49657 0.80812 1.046 0.80812 3.7258 0 1.8262-0.16932 3.1433-0.40406 3.1433-0.24795 0-0.40406 1.9626-0.40406 5.0796 0 3.8636-0.13819 5.2178-0.57723 5.6569-0.65856 0.65856-2.2512 0.78107-2.2512 0.17317z"/>
   <path id="path8318" d="m-126.32 79.461c0-2.5591 0.16035-4.2426 0.40407-4.2426 0.24504 0 0.40406-1.7606 0.40406-4.4735 0-4.7569 0.30823-5.628 1.9914-5.628 0.46034 0 0.83698-0.19482 0.83698-0.43292 0-0.71306 1.0969-1.5874 1.9914-1.5874 0.46034 0 0.83698-0.18183 0.83698-0.40406s0.45457-0.40406 1.0102-0.40406c0.55559 0 1.0102-0.19482 1.0102-0.43292 0-0.64376 1.0637-1.5874 1.7894-1.5874 0.34922 0 0.63495-0.18183 0.63495-0.40406s0.45457-0.40406 1.0102-0.40406c0.55559 0 1.0102-0.19482 1.0102-0.43292 0-0.71306 1.0969-1.5874 1.9914-1.5874 0.46034 0 0.83698-0.18183 0.83698-0.40406s0.45457-0.40406 1.0102-0.40406c0.55558 0 1.0102-0.19482 1.0102-0.43292 0-0.68404 1.0825-1.5874 1.9022-1.5874 0.41128 0 1.0099-0.36366 1.3302-0.80812 0.32035-0.44447 0.99689-0.80812 1.5034-0.80812 0.54925 0 0.92095-0.24462 0.92095-0.60609 0-0.33672 0.35917-0.60609 0.80813-0.60609 0.44446 0 0.80812-0.18183 0.80812-0.40406s0.27274-0.40406 0.60609-0.40406 0.60609-0.18183 0.60609-0.40406 0.36366-0.40406 0.80812-0.40406c0.44896 0 0.80812-0.26937 0.80812-0.60609 0-0.36147 0.3717-0.60609 0.92095-0.60609 0.50652 0 1.1831-0.36366 1.5034-0.80812 1.4728-2.0434 1.6162-1.2008 1.6162 9.4954 0 6.5997 0.14525 10.304 0.40406 10.304 0.22223 0 0.40406 0.36365 0.40406 0.80812s-0.18183 0.80812-0.40406 0.80812-0.40406 0.27274-0.40406 0.60609c0 0.37712-0.38161 0.60609-1.0102 0.60609-0.55558 0-1.0102 0.18183-1.0102 0.40406s-0.45457 0.40406-1.0102 0.40406c-0.55558 0-1.0102 0.18183-1.0102 0.40406s-0.6364 0.40406-1.4142 0.40406c-0.9877 0-1.4142 0.18279-1.4142 0.60609 0 0.33672-0.35917 0.60609-0.80812 0.60609-0.44447 0-0.80813 0.18183-0.80813 0.40406s-0.45457 0.40406-1.0102 0.40406c-0.55558 0-1.0102 0.18183-1.0102 0.40406s-0.6364 0.40406-1.4142 0.40406c-0.9877 0-1.4142 0.18279-1.4142 0.60609 0 0.37712-0.38161 0.60609-1.0102 0.60609-0.55559 0-1.0102 0.18183-1.0102 0.40406s-0.36366 0.40406-0.80813 0.40406c-0.44446 0-0.80812 0.18183-0.80812 0.40406s-0.63639 0.40406-1.4142 0.40406c-0.77782 0-1.4142 0.18183-1.4142 0.40406s-0.45457 0.40406-1.0102 0.40406c-0.62854 0-1.0102 0.22897-1.0102 0.60609 0 0.33672-0.35917 0.60609-0.80812 0.60609-0.44447 0-0.80812 0.18183-0.80812 0.40406s-0.6364 0.40406-1.4142 0.40406c-0.77782 0-1.4142 0.18183-1.4142 0.40406s-0.45457 0.40406-1.0102 0.40406c-0.62854 0-1.0102 0.22897-1.0102 0.60609s-0.38161 0.60609-1.0102 0.60609c-0.55558 0-1.0102 0.18183-1.0102 0.40406s-0.36366 0.40406-0.80812 0.40406c-0.75682 0-0.80813-0.26937-0.80813-4.2426z"/>
   <path id="path8320" d="m-124.7 55.622c0-0.62854 0.22897-1.0102 0.60609-1.0102 0.50989 0 0.60609-0.89791 0.60609-5.6569 0-3.5019 0.15393-5.6569 0.40406-5.6569 0.22224 0 0.40406-1.0001 0.40406-2.2223 0-2.1011 0.0551-2.2223 1.0102-2.2223 0.62854 0 1.0102-0.22897 1.0102-0.60609 0-0.33672 0.35916-0.60609 0.80812-0.60609 0.44447 0 0.80812-0.18183 0.80812-0.40406s0.6364-0.40406 1.4142-0.40406c0.77781 0 1.4142-0.18183 1.4142-0.40406s0.45457-0.40406 1.0102-0.40406c0.62854 0 1.0102-0.22897 1.0102-0.60609 0-0.4233 0.4265-0.60609 1.4142-0.60609 0.77782 0 1.4142-0.18183 1.4142-0.40406s0.18183-0.40406 0.40406-0.40406c0.25398 0 0.40406 2.6264 0.40406 7.0711 0 6.883-0.0223 7.0711-0.83698 7.0711-0.89456 0-1.9914 0.87433-1.9914 1.5874 0 0.23811-0.45457 0.43292-1.0102 0.43292-0.55558 0-1.0102 0.18183-1.0102 0.40406s-0.28573 0.40406-0.63495 0.40406c-0.72569 0-1.7894 0.94362-1.7894 1.5874 0 0.23811-0.41443 0.43292-0.92096 0.43292-0.50652 0-1.1831 0.36366-1.5034 0.80812-0.32035 0.44447-0.91896 0.80812-1.3302 0.80812-0.81973 0-1.9022 0.90334-1.9022 1.5874 0 0.23811-0.27274 0.43292-0.60609 0.43292-0.37712 0-0.60609-0.38161-0.60609-1.0102z"/>
   <path id="path8322" d="m-102.08 34.61c0-4.4447-0.15008-7.0711-0.40407-7.0711-0.22223 0-0.40406-0.6364-0.40406-1.4142 0-1.2391-0.12506-1.4142-1.0102-1.4142-0.55558 0-1.0102-0.18183-1.0102-0.40406s-0.81823-0.40406-1.8183-0.40406c-1 0-1.8183 0.18183-1.8183 0.40406s-0.6364 0.40406-1.4142 0.40406c-0.77782 0-1.4142 0.18183-1.4142 0.40406s-0.45457 0.40406-1.0102 0.40406c-0.62854 0-1.0102 0.22897-1.0102 0.60609 0 0.4233-0.42651 0.60609-1.4142 0.60609-0.77781 0-1.4142 0.18183-1.4142 0.40406s-0.6364 0.40406-1.4142 0.40406c-0.77782 0-1.4142 0.18183-1.4142 0.40406s-0.36365 0.40406-0.80812 0.40406c-0.44896 0-0.80812 0.26937-0.80812 0.60609 0 0.33335-0.27274 0.60609-0.60609 0.60609-0.49622 0-0.60609-0.69588-0.60609-3.8386s0.10987-3.8386 0.60609-3.8386c0.5066 0 0.60609-0.83378 0.60609-5.0796 0-5.3993 0.26665-6.2341 1.9914-6.2341 0.46034 0 0.83699-0.18183 0.83699-0.40406s0.54548-0.40406 1.2122-0.40406c0.80812 0 1.2122-0.20203 1.2122-0.60609 0-0.37712 0.38162-0.60609 1.0102-0.60609 0.55559 0 1.0102-0.18183 1.0102-0.40406s0.45457-0.40406 1.0102-0.40406c0.55558 0 1.0102-0.18183 1.0102-0.40406s0.6364-0.40406 1.4142-0.40406c0.77781 0 1.4142-0.18183 1.4142-0.40406s0.36365-0.40406 0.80812-0.40406c0.44896 0 0.80812-0.26937 0.80812-0.60609 0-0.37712 0.38162-0.60609 1.0102-0.60609 0.55558 0 1.0102-0.18183 1.0102-0.40406s0.45457-0.40406 1.0102-0.40406c0.55558 0 1.0102-0.18183 1.0102-0.40406s0.6364-0.40406 1.4142-0.40406c0.9877 0 1.4142-0.18279 1.4142-0.60609 0-0.33672 0.35917-0.60609 0.80812-0.60609 0.44447 0 0.80812-0.18183 0.80812-0.40406s0.45457-0.40406 1.0102-0.40406h1.0102v10.708c0 6.869 0.14485 10.708 0.40406 10.708 0.2559 0 0.40406 2.9631 0.40406 8.0812 0 7.8118-0.02694 8.0812-0.80812 8.0812-0.44447 0-0.80812 0.18183-0.80812 0.40406s-0.37664 0.40406-0.83698 0.40406c-0.89456 0-1.9914 0.87433-1.9914 1.5874 0 0.23811-0.45457 0.43292-1.0102 0.43292h-1.0102v-7.0711z"/>
   <path id="path8324" d="m-82.278 42.085c0-0.22223-0.27274-0.40406-0.60609-0.40406s-0.60609-0.27274-0.60609-0.60609c0-0.33672-0.35916-0.60609-0.80812-0.60609-0.44447 0-0.80812-0.18183-0.80812-0.40406s-0.19482-0.40406-0.43292-0.40406c-0.55941 0-1.5874-1.028-1.5874-1.5874 0-0.23811-0.18183-0.43292-0.40406-0.43292-0.25921 0-0.40406-3.8386-0.40406-10.708 0-9.2485-0.08259-10.708-0.60609-10.708-0.51691 0-0.60609-1.0999-0.60609-7.4751v-7.4751h1.4142c0.77782 0 1.4142 0.18183 1.4142 0.40406s0.6364 0.40406 1.4142 0.40406c1.2391 0 1.4142 0.12507 1.4142 1.0102 0 0.62854 0.22897 1.0102 0.60609 1.0102 0.44896 0 0.60609 0.4714 0.60609 1.8183 0 1.0001 0.18183 1.8183 0.40406 1.8183s0.40406 0.81822 0.40406 1.8183 0.18183 1.8183 0.40406 1.8183 0.40406 0.6364 0.40406 1.4142c0 0.9877 0.18279 1.4142 0.60609 1.4142 0.45794 0 0.60609 0.49385 0.60609 2.0203 0 1.1112 0.18183 2.0203 0.40406 2.0203s0.40406 0.81822 0.40406 1.8183 0.18183 1.8183 0.40406 1.8183 0.40406 0.6364 0.40406 1.4142c0 1.1611 0.1498 1.4142 0.83698 1.4142 0.89456 0 1.9914-0.87433 1.9914-1.5874 0-0.23811 0.27274-0.43292 0.60609-0.43292 0.33672 0 0.60609-0.35917 0.60609-0.80812 0-0.44447 0.18183-0.80812 0.40406-0.80812s0.40406-0.19482 0.40406-0.43292c0-0.55941 1.028-1.5874 1.5874-1.5874 0.23811 0 0.43292-0.41443 0.43292-0.92095s0.36366-1.1831 0.80812-1.5034c0.44447-0.32035 0.80812-0.91896 0.80812-1.3302 0-0.72045 0.8786-1.9022 1.4142-1.9022 0.50807 0 1.4142-1.165 1.4142-1.8183 0-0.74967 0.93291-1.8183 1.5874-1.8183 0.23811 0 0.43292-0.27274 0.43292-0.60609s0.18183-0.60609 0.40406-0.60609 0.40406 0.27274 0.40406 0.60609c0 0.4233 0.42651 0.60609 1.4142 0.60609 0.77782 0 1.4142 0.18183 1.4142 0.40406s0.45457 0.40406 1.0102 0.40406c0.98129 0 1.0102 0.08081 1.0102 2.8284 0 1.6162 0.17317 2.8284 0.40406 2.8284s0.40406 1.2122 0.40406 2.8284 0.17317 2.8284 0.40406 2.8284c0.22223 0 0.40406 0.18183 0.40406 0.40406s-0.6364 0.40406-1.4142 0.40406c-0.9877 0-1.4142 0.18279-1.4142 0.60609 0 0.44896-0.4714 0.60609-1.8183 0.60609-1.0001 0-1.8183 0.18183-1.8183 0.40406s-0.45457 0.40406-1.0102 0.40406c-0.55558 0-1.0102 0.18183-1.0102 0.40406s-0.36366 0.40406-0.80812 0.40406c-0.44896 0-0.80812 0.26937-0.80812 0.60609 0 0.34121-0.36121 0.60609-0.82649 0.60609-0.85995 0-2.8101 1.6697-2.8101 2.406 0 0.23234-0.41443 0.42243-0.92095 0.42243s-1.1831 0.36366-1.5034 0.80812c-0.32035 0.44447-0.73714 0.80812-0.92618 0.80812-0.48702 0-1.4982 1.0714-1.4982 1.5874 0 0.23811-0.18183 0.43292-0.40406 0.43292s-0.40406 0.36366-0.40406 0.80812c0 0.44896-0.26937 0.80812-0.60609 0.80812-0.33335 0-0.60609 0.27274-0.60609 0.60609s-0.18183 0.60609-0.40406 0.60609-0.40406 0.36366-0.40406 0.80812c0 0.44447-0.18183 0.80812-0.40406 0.80812s-0.40406 0.27274-0.40406 0.60609-0.27274 0.60609-0.60609 0.60609c-0.33672 0-0.60609 0.35917-0.60609 0.80812 0 0.44447-0.18183 0.80812-0.40406 0.80812s-0.40406 0.45457-0.40406 1.0102c0 0.55558-0.18183 1.0102-0.40406 1.0102s-0.40406-0.18183-0.40406-0.40406z"/>
   <path id="path8326" d="m-54.398 57.844c0-0.22223-0.6364-0.40406-1.4142-0.40406-0.77782 0-1.4142-0.18183-1.4142-0.40406s-0.36366-0.40406-0.80812-0.40406c-0.44896 0-0.80812-0.26937-0.80812-0.60609 0-0.37712-0.38161-0.60609-1.0102-0.60609-0.55558 0-1.0102-0.18183-1.0102-0.40406s-0.45457-0.40406-1.0102-0.40406c-0.55558 0-1.0102-0.18183-1.0102-0.40406s-0.36366-0.40406-0.80812-0.40406c-0.44447 0-0.80812-0.18183-0.80812-0.40406s-0.45457-0.40406-1.0102-0.40406c-0.62854 0-1.0102-0.22897-1.0102-0.60609 0-0.36147-0.3717-0.60609-0.92095-0.60609-0.50652 0-1.1831-0.36366-1.5034-0.80812-0.32035-0.44447-0.90598-0.80812-1.3014-0.80812-0.39541 0-0.71892-0.27274-0.71892-0.60609s-0.27274-0.60609-0.60609-0.60609-0.60609-0.18183-0.60609-0.40406-0.36366-0.40406-0.80812-0.40406c-0.65419 0-0.80812-0.26937-0.80812-1.4142 0-0.77782 0.18183-1.4142 0.40406-1.4142s0.40406-0.45457 0.40406-1.0102c0-0.55558 0.18183-1.0102 0.40406-1.0102s0.40406-0.36365 0.40406-0.80812c0-0.44896 0.26937-0.80812 0.60609-0.80812 0.33335 0 0.60609-0.2326 0.60609-0.51689s0.36366-0.779 0.80812-1.0994c0.44447-0.32035 0.80812-0.91896 0.80812-1.3302 0-0.72046 0.8786-1.9022 1.4142-1.9022 0.41954 0 1.4142-1.1165 1.4142-1.5874 0-0.23811 0.41443-0.43292 0.92095-0.43292s1.1831-0.36366 1.5034-0.80812c0.32035-0.44447 0.99689-0.80812 1.5034-0.80812 0.54925 0 0.92095-0.24462 0.92095-0.60609 0-0.4233 0.42651-0.60609 1.4142-0.60609 0.77782 0 1.4142-0.18183 1.4142-0.40406s0.6364-0.40406 1.4142-0.40406c1.3469 0 1.4142 0.06734 1.4142 1.4142 0 0.77782 0.18183 1.4142 0.40406 1.4142 0.23089 0 0.40406 1.2122 0.40406 2.8284s0.17317 2.8284 0.40406 2.8284c0.2357 0 0.40406 1.3469 0.40406 3.2325 0 2.6039 0.11785 3.2325 0.60609 3.2325 0.48102 0 0.60609 0.58364 0.60609 2.8284 0 1.6162 0.17317 2.8284 0.40406 2.8284 0.2357 0 0.40406 1.3469 0.40406 3.2325 0 3.1786-0.01684 3.2325-1.0102 3.2325-0.55558 0-1.0102-0.18183-1.0102-0.40406z"/>
   <path id="path8328" d="m-75.308 13.601c-0.27779-0.31552-0.50508-1.3087-0.50508-2.207 0-0.89832-0.18183-1.6333-0.40406-1.6333s-0.40406-0.81822-0.40406-1.8183c0-1.3469-0.15714-1.8183-0.60609-1.8183-0.4233 0-0.60609-0.42651-0.60609-1.4142 0-0.77782-0.18183-1.4142-0.40406-1.4142s-0.40406-0.90914-0.40406-2.0203-0.18183-2.0203-0.40406-2.0203-0.40406-0.81822-0.40406-1.8183c0-1.3469-0.15714-1.8183-0.60609-1.8183-0.44896 0-0.60609-0.4714-0.60609-1.8183 0-1.0001-0.18183-1.8183-0.40406-1.8183s-0.40406-0.6364-0.40406-1.4142c0-0.77782-0.18183-1.4142-0.40406-1.4142s-0.40406-0.90914-0.40406-2.0203c0-1.5265-0.14816-2.0203-0.60609-2.0203-0.44896 0-0.60609-0.4714-0.60609-1.8183 0-1.0001-0.18183-1.8183-0.40406-1.8183-0.23944 0-0.40406-1.4816-0.40406-3.6365 0-2.155 0.16462-3.6366 0.40406-3.6366 0.22223 0 0.40406-0.6364 0.40406-1.4142 0-0.9877 0.18279-1.4142 0.60609-1.4142 0.37712 0 0.60609-0.38161 0.60609-1.0102 0-0.55558 0.18183-1.0102 0.40406-1.0102s0.40406-0.37664 0.40406-0.83698c0-0.79231 0.85156-1.9914 1.4142-1.9914 0.41954 0 1.4142-1.1165 1.4142-1.5874 0-0.23811 0.41443-0.43292 0.92095-0.43292s1.1831-0.36366 1.5034-0.80812c0.32035-0.44447 0.99689-0.80812 1.5034-0.80812 0.54925 0 0.92095-0.24462 0.92095-0.60609 0-0.46528 0.5163-0.60609 2.2223-0.60609 1.2223 0 2.2223-0.18183 2.2223-0.40406s0.6364-0.40406 1.4142-0.40406c0.77782 0 1.4142 0.18183 1.4142 0.40406s0.81822 0.40406 1.8183 0.40406c1.3469 0 1.8183 0.15714 1.8183 0.60609 0 0.4233 0.42651 0.60609 1.4142 0.60609 0.77782 0 1.4142 0.18183 1.4142 0.40406s0.19482 0.40406 0.43292 0.40406c0.55941 0 1.5874 1.028 1.5874 1.5874 0 0.23811 0.37664 0.43292 0.83698 0.43292 1.0043 0 1.9914 0.9013 1.9914 1.8183 0 0.74967 0.93291 1.8183 1.5874 1.8183 0.23811 0 0.43292 0.45457 0.43292 1.0102 0 0.55558 0.18183 1.0102 0.40406 1.0102s0.40406 0.6364 0.40406 1.4142c0 0.77782 0.18183 1.4142 0.40406 1.4142 0.2357 0 0.40406 1.3469 0.40406 3.2325s-0.16836 3.2325-0.40406 3.2325c-0.22223 0-0.40406 0.6364-0.40406 1.4142 0 0.77782-0.18183 1.4142-0.40406 1.4142s-0.40406 0.36366-0.40406 0.80812c0 0.44896-0.26937 0.80812-0.60609 0.80812-0.36147 0-0.60609 0.3717-0.60609 0.92095 0 0.50652-0.36366 1.1831-0.80812 1.5034-0.44447 0.32035-0.80812 0.99689-0.80812 1.5034 0 0.50652-0.19482 0.92095-0.43292 0.92095-0.23811 0-0.69268 0.25975-1.0102 0.57723-0.31748 0.31748-0.57723 0.77205-0.57723 1.0102 0 0.23811-0.18183 0.43292-0.40406 0.43292s-0.40406 0.36365-0.40406 0.80812c0 0.44896-0.26938 0.80812-0.60609 0.80812-0.33335 0-0.60609 0.27274-0.60609 0.60609s-0.18183 0.60609-0.40406 0.60609-0.40406 0.36365-0.40406 0.80812-0.18183 0.80812-0.40406 0.80812-0.40406 0.27274-0.40406 0.60609-0.19482 0.60609-0.43292 0.60609c-0.65447 0-1.5874 1.0686-1.5874 1.8183 0 0.65324-0.90614 1.8183-1.4142 1.8183-0.50807 0-1.4142 1.165-1.4142 1.8183 0 0.74967-0.93291 1.8183-1.5874 1.8183-0.23811 0-0.43292 0.27274-0.43292 0.60609s-0.18183 0.60609-0.40406 0.60609-0.40406 0.32352-0.40406 0.71892c0 0.39541-0.36366 0.98103-0.80812 1.3014-0.44447 0.32036-0.80812 0.99689-0.80812 1.5034 0 0.50652-0.19482 0.92095-0.43292 0.92095-0.23811 0-0.69268 0.25976-1.0102 0.57723-0.31748 0.31748-0.57723 0.77205-0.57723 1.0102 0 0.23811-0.18183 0.43292-0.40406 0.43292s-0.40406 0.36366-0.40406 0.80812c0 0.93323-0.78055 1.0382-1.5152 0.20372zm10.808-26.872c0-0.22223 0.36366-0.40406 0.80812-0.40406 0.44896 0 0.80812-0.26937 0.80812-0.60609 0-0.33335 0.19009-0.60609 0.42243-0.60609 0.90712 0 2.406-2.0023 2.406-3.2141 0-0.82445 0.20002-1.2305 0.60609-1.2305 0.4714 0 0.60609-0.53875 0.60609-2.4244s-0.13469-2.4244-0.60609-2.4244c-0.40607 0-0.60609-0.4061-0.60609-1.2306 0-1.2118-1.4989-3.2141-2.406-3.2141-0.23234 0-0.42243-0.27274-0.42243-0.60609 0-0.33672-0.35916-0.60609-0.80812-0.60609-0.44447 0-0.80812-0.18183-0.80812-0.40406 0-0.2357-1.3469-0.40406-3.2325-0.40406s-3.2325 0.16836-3.2325 0.40406c0 0.22223-0.45457 0.40406-1.0102 0.40406-0.55558 0-1.0102 0.19482-1.0102 0.43292 0 0.47091-0.99468 1.5874-1.4142 1.5874-0.56265 0-1.4142 1.1991-1.4142 1.9914 0 0.46034-0.18183 0.83698-0.40406 0.83698-0.2357 0-0.40406 1.3469-0.40406 3.2325s0.16836 3.2325 0.40406 3.2325c0.22223 0 0.40406 0.37664 0.40406 0.83698 0 0.79231 0.85156 1.9914 1.4142 1.9914 0.41954 0 1.4142 1.1165 1.4142 1.5874 0 0.23811 0.45457 0.43292 1.0102 0.43292 0.55558 0 1.0102 0.18183 1.0102 0.40406 0 0.2357 1.3469 0.40406 3.2325 0.40406s3.2325-0.16836 3.2325-0.40406z"/>
   <path id="path8330" d="m-50.358 81.279c0-0.22223-0.6364-0.40406-1.4142-0.40406-0.77782 0-1.4142-0.18183-1.4142-0.40406s-0.6364-0.40406-1.4142-0.40406c-0.9877 0-1.4142-0.18279-1.4142-0.60609s-0.42651-0.60609-1.4142-0.60609c-0.77782 0-1.4142-0.18183-1.4142-0.40406s-0.6364-0.40406-1.4142-0.40406c-0.77782 0-1.4142-0.18183-1.4142-0.40406s-0.6364-0.40406-1.4142-0.40406c-0.77782 0-1.4142-0.18183-1.4142-0.40406s-0.6364-0.40406-1.4142-0.40406c-0.9877 0-1.4142-0.18279-1.4142-0.60609s-0.42651-0.60609-1.4142-0.60609c-0.77782 0-1.4142-0.18183-1.4142-0.40406s-0.81822-0.40406-1.8183-0.40406-1.8183-0.18183-1.8183-0.40406-0.6364-0.40406-1.4142-0.40406c-0.9877 0-1.4142-0.18279-1.4142-0.60609s-0.42651-0.60609-1.4142-0.60609c-0.77782 0-1.4142-0.18183-1.4142-0.40406s-0.6364-0.40406-1.4142-0.40406c-0.77782 0-1.4142-0.18183-1.4142-0.40406s-0.6364-0.40406-1.4142-0.40406c-0.9877 0-1.4142-0.18279-1.4142-0.60609 0-0.33335-0.27274-0.60609-0.60609-0.60609-0.50027 0-0.60609-0.74078-0.60609-4.2426 0-2.5591-0.16034-4.2426-0.40406-4.2426-0.25142 0-0.40406-2.2897-0.40406-6.0609s0.15265-6.0609 0.40406-6.0609c0.22223 0 0.40406 0.27274 0.40406 0.60609 0 0.36147 0.3717 0.60609 0.92095 0.60609 0.50652 0 1.1831 0.36366 1.5034 0.80812 0.32035 0.44447 0.81506 0.80812 1.0994 0.80812 0.28429 0 0.51689 0.27274 0.51689 0.60609 0 0.33672 0.35916 0.60609 0.80812 0.60609 0.44447 0 0.80812 0.18183 0.80812 0.40406s0.27274 0.40406 0.60609 0.40406 0.60609 0.18183 0.60609 0.40406 0.36366 0.40406 0.80812 0.40406c0.44447 0 0.80812 0.18183 0.80812 0.40406s0.45457 0.40406 1.0102 0.40406c0.55558 0 1.0102 0.19482 1.0102 0.43292 0 0.65447 1.0686 1.5874 1.8183 1.5874 0.74967 0 1.8183 0.93291 1.8183 1.5874 0 0.23811 0.45457 0.43292 1.0102 0.43292 0.55558 0 1.0102 0.18183 1.0102 0.40406s0.36366 0.40406 0.80812 0.40406c0.44447 0 0.80812 0.18183 0.80812 0.40406s0.45457 0.40406 1.0102 0.40406c0.62854 0 1.0102 0.22897 1.0102 0.60609s0.38161 0.60609 1.0102 0.60609c0.55558 0 1.0102 0.18183 1.0102 0.40406s0.36366 0.40406 0.80812 0.40406c0.44447 0 0.80812 0.18183 0.80812 0.40406s0.45457 0.40406 1.0102 0.40406c0.62854 0 1.0102 0.22897 1.0102 0.60609 0 0.4233 0.42651 0.60609 1.4142 0.60609 0.77782 0 1.4142 0.18183 1.4142 0.40406s0.6364 0.40406 1.4142 0.40406c0.77782 0 1.4142 0.18183 1.4142 0.40406s0.6364 0.40406 1.4142 0.40406c0.9877 0 1.4142 0.18279 1.4142 0.60609 0 0.37712 0.38161 0.60609 1.0102 0.60609 0.74078 0 1.0102 0.2155 1.0102 0.80812 0 0.44447 0.18183 0.80812 0.40406 0.80812 0.23768 0 0.40406 1.4142 0.40406 3.4345s0.16638 3.4345 0.40406 3.4345c0.22793 0 0.40406 1.1448 0.40406 2.6264 0 2.357-0.08288 2.6264-0.80812 2.6264-0.44447 0-0.80812-0.18183-0.80812-0.40406z"/>
  </g>
 </g>
</svg>
