<?xml version="1.0" encoding="utf-8"?>
<!-- Generator: Adobe Illustrator 16.0.0, SVG Export Plug-In . SVG Version: 6.00 Build 0)  -->
<!DOCTYPE svg PUBLIC "-//W3C//DTD SVG 1.1//EN" "http://www.w3.org/Graphics/SVG/1.1/DTD/svg11.dtd">
<svg version="1.1" id="Layer_1" xmlns="http://www.w3.org/2000/svg" xmlns:xlink="http://www.w3.org/1999/xlink" x="0px" y="0px"
	 width="33.083px" height="33.083px" viewBox="0 0 33.083 33.083" enable-background="new 0 0 33.083 33.083" xml:space="preserve">
<path fill="#3C5B9B" d="M32.96,16.554c0,9.075-7.359,16.435-16.435,16.435c-9.072,0-16.432-7.36-16.432-16.435
	c0-9.071,7.359-16.427,16.432-16.427C25.601,0.127,32.96,7.482,32.96,16.554z"/>
<g>
	<path fill="#FFFFFF" d="M13.62,28.462V16.227h-1.858v-3.635h1.858v-0.617c0-1.915,0.522-4.024,1.801-5.323
		c1.104-1.168,2.643-1.59,3.92-1.59c0.987,0,1.742,0.13,2.352,0.325l-0.174,3.797c-0.378-0.13-0.842-0.228-1.423-0.228
		c-1.452,0-2.062,1.266-2.062,2.824v0.812h2.846v3.635h-2.816v12.236H13.62z"/>
</g>
</svg>
