<?xml version="1.0" encoding="utf-8"?>
<!-- Generator: Adobe Illustrator 16.0.0, SVG Export Plug-In . SVG Version: 6.00 Build 0)  -->
<!DOCTYPE svg PUBLIC "-//W3C//DTD SVG 1.1//EN" "http://www.w3.org/Graphics/SVG/1.1/DTD/svg11.dtd">
<svg version="1.1" id="Layer_1" xmlns="http://www.w3.org/2000/svg" xmlns:xlink="http://www.w3.org/1999/xlink" x="0px" y="0px"
	 width="33.104px" height="33.188px" viewBox="0 0 33.104 33.188" enable-background="new 0 0 33.104 33.188" xml:space="preserve">
<path fill="#F63E28" d="M32.984,16.607c0,9.075-7.359,16.435-16.434,16.435c-9.072,0-16.432-7.36-16.432-16.435
	c0-9.071,7.359-16.427,16.432-16.427C25.625,0.181,32.984,7.536,32.984,16.607z"/>
<g>
	<path fill="#FFFFFF" d="M9.654,20.226c-0.797-0.418-1.195-0.92-1.195-1.506c0-0.376,0.183-0.744,0.549-1.104
		c0.365-0.359,0.914-0.709,1.645-1.051c-0.859-0.321-1.505-0.785-1.936-1.391c-0.43-0.607-0.645-1.356-0.645-2.249
		c0-1.227,0.423-2.207,1.27-2.939c0.846-0.732,1.977-1.098,3.391-1.098c0.445,0,0.865,0.035,1.259,0.104
		c0.394,0.07,0.765,0.175,1.113,0.314l4.273-0.355l-0.648,1.652l-2.259-0.313c0.662,0.788,0.994,1.646,0.994,2.573
		c0,1.15-0.415,2.114-1.243,2.892c-0.829,0.777-1.855,1.166-3.081,1.166c-0.25,0-0.592-0.018-1.023-0.052l-0.605-0.104
		c-0.236,0.181-0.414,0.361-0.533,0.539c-0.117,0.178-0.177,0.357-0.177,0.538c0,0.439,0.567,0.659,1.702,0.659h1.756
		c1.629,0,2.788,0.206,3.478,0.617c0.683,0.418,1.024,1.119,1.024,2.103c0,1.144-0.55,2.063-1.648,2.761
		c-1.098,0.697-2.55,1.046-4.355,1.046c-1.618,0-2.943-0.229-3.975-0.69c-1.032-0.46-1.548-1.049-1.548-1.768
		C7.235,21.522,8.041,20.742,9.654,20.226z M10.655,20.508c-0.286,0.621-0.429,1.119-0.429,1.496c0,0.564,0.271,1.048,0.816,1.448
		c0.543,0.401,1.195,0.602,1.955,0.602c0.83,0,1.521-0.216,2.076-0.648s0.832-0.969,0.832-1.61c0-0.433-0.197-0.755-0.592-0.968
		c-0.394-0.213-0.984-0.319-1.772-0.319H10.655z M10.979,12.967c0,1.018,0.149,1.783,0.45,2.296
		c0.299,0.512,0.746,0.769,1.338,0.769c0.6,0,1.048-0.256,1.344-0.769c0.297-0.513,0.445-1.278,0.445-2.296
		c0-1.025-0.148-1.792-0.445-2.301c-0.296-0.509-0.744-0.764-1.344-0.764c-0.592,0-1.039,0.254-1.338,0.764
		C11.129,11.175,10.979,11.942,10.979,12.967z"/>
</g>
<g>
	<path fill="#FFFFFF" stroke="#FFFFFF" stroke-width="0.5" stroke-miterlimit="10" d="M22.33,16.254v-2.748h-2.748v-0.867h2.748
		V9.891h0.867v2.748h2.748v0.867h-2.748v2.748H22.33z"/>
</g>
<g>
</g>
<g>
</g>
<g>
</g>
<g>
</g>
<g>
</g>
<g>
</g>
<g>
</g>
<g>
</g>
<g>
</g>
<g>
</g>
<g>
</g>
<g>
</g>
<g>
</g>
<g>
</g>
<g>
</g>
</svg>
