<?xml version="1.0" encoding="utf-8"?>
<!-- Generator: Adobe Illustrator 16.0.0, SVG Export Plug-In . SVG Version: 6.00 Build 0)  -->
<!DOCTYPE svg PUBLIC "-//W3C//DTD SVG 1.1 Tiny//EN" "http://www.w3.org/Graphics/SVG/1.1/DTD/svg11-tiny.dtd">
<svg version="1.1" baseProfile="tiny" id="Layer_1" xmlns:sketch="http://www.bohemiancoding.com/sketch/ns"
	 xmlns="http://www.w3.org/2000/svg" xmlns:xlink="http://www.w3.org/1999/xlink" x="0px" y="0px" width="33.479px"
	 height="33.333px" viewBox="537.084 199.646 33.479 33.333" xml:space="preserve">
<title>Instagram</title>
<description>Created with Sketch (http://www.bohemiancoding.com/sketch)</description>
<g>
	<path fill="#FFFFFF" d="M569.245,216.205c0,8.031-6.899,14.545-15.406,14.545c-8.506,0-15.405-6.514-15.405-14.545
		c0-8.028,6.899-14.538,15.405-14.538C562.346,201.667,569.245,208.176,569.245,216.205z"/>
	<g id="Page_1">
		<g id="svg2">
			<path id="path2986" fill="#6F7070" d="M553.838,199.91c-9.093,0-16.464,7.372-16.464,16.464c0,9.093,7.371,16.465,16.464,16.465
				c9.095,0,16.466-7.372,16.466-16.465C570.304,207.281,562.933,199.91,553.838,199.91L553.838,199.91z M546.026,205.179h15.768
				c1.835,0,3.313,1.319,3.313,2.958v16.475c0,1.639-1.478,2.958-3.313,2.958h-15.768c-1.835,0-3.312-1.319-3.312-2.958v-16.475
				C542.715,206.498,544.191,205.179,546.026,205.179L546.026,205.179z M559.683,207.497c-0.413,0-0.745,0.332-0.745,0.744v2.382
				c0,0.412,0.332,0.744,0.745,0.744h2.382c0.413,0,0.743-0.332,0.743-0.744v-2.382c0-0.413-0.33-0.744-0.743-0.744H559.683
				L559.683,207.497z M557.669,211.715c0.016,0.011,0.033,0.023,0.049,0.035v-0.035H557.669L557.669,211.715z M553.838,212.159
				c-2.728,0-4.939,2.212-4.939,4.939c0,2.729,2.212,4.94,4.939,4.94c2.729,0,4.94-2.211,4.94-4.94
				C558.778,214.371,556.566,212.159,553.838,212.159L553.838,212.159z M543.96,214.014v10.263c0,1.095,0.882,1.976,1.976,1.976
				h15.806c1.095,0,1.977-0.881,1.977-1.976v-10.054h-3.938c0.413,0.86,0.646,1.823,0.646,2.841c0,3.628-2.941,6.57-6.571,6.57
				c-3.628,0-6.57-2.942-6.57-6.57c0-1.101,0.271-2.139,0.75-3.05H543.96L543.96,214.014z"/>
		</g>
	</g>
</g>
</svg>
