<?xml version="1.0" encoding="utf-8"?>
<!-- Generator: Adobe Illustrator 16.0.0, SVG Export Plug-In . SVG Version: 6.00 Build 0)  -->
<!DOCTYPE svg PUBLIC "-//W3C//DTD SVG 1.1 Tiny//EN" "http://www.w3.org/Graphics/SVG/1.1/DTD/svg11-tiny.dtd">
<svg version="1.1" baseProfile="tiny" id="Layer_1" xmlns="http://www.w3.org/2000/svg" xmlns:xlink="http://www.w3.org/1999/xlink"
	 x="0px" y="0px" width="33.109px" height="33.109px" viewBox="508.359 335.75 33.109 33.109" xml:space="preserve">
<g>
	<path fill="#2DAAE1" d="M541.355,352.287c0,9.075-7.359,16.435-16.434,16.435c-9.073,0-16.433-7.36-16.433-16.435
		c0-9.071,7.359-16.427,16.433-16.427C533.996,335.86,541.355,343.216,541.355,352.287z"/>
	<path fill="#FFFFFF" d="M512.656,360.246c2.652,0.319,5.143-0.399,7.475-2.156c-1.086,0.031-2.044-0.288-2.874-0.958
		c-0.831-0.671-1.454-1.534-1.87-2.587c0.287,0.064,0.64,0.08,1.056,0.048c0.542-0.032,0.941-0.08,1.196-0.144
		c-1.629-0.543-2.763-1.421-3.401-2.635c-0.383-0.831-0.575-1.677-0.575-2.54c0.926,0.479,1.677,0.703,2.252,0.671
		c-1.31-1.118-2.044-2.316-2.203-3.594c-0.096-1.022,0.111-2.124,0.623-3.306c1.853,2.044,3.801,3.514,5.845,4.408
		c1.533,0.639,3.051,0.958,4.553,0.958c-0.192-1.533,0.015-2.827,0.622-3.881c0.734-1.15,1.79-1.917,3.162-2.3
		c0.896-0.224,1.757-0.2,2.588,0.072c0.83,0.272,1.532,0.727,2.107,1.366c0.991-0.097,2.077-0.496,3.259-1.199
		c-0.479,1.406-1.229,2.364-2.252,2.875c1.022-0.16,2.013-0.448,2.971-0.863c-0.159,0.32-0.463,0.75-0.911,1.293
		c-0.447,0.543-1.005,1.006-1.677,1.39c0.032,0.16,0.048,0.304,0.048,0.432c0.064,1.789-0.287,3.689-1.054,5.702
		c-1.31,3.29-3.29,5.766-5.941,7.426c-2.619,1.47-5.75,2.029-9.392,1.677C515.962,362.147,514.094,361.428,512.656,360.246
		L512.656,360.246z"/>
</g>
</svg>
