<?xml version="1.0" encoding="utf-8"?>
<!-- Generator: Adobe Illustrator 16.0.0, SVG Export Plug-In . SVG Version: 6.00 Build 0)  -->
<!DOCTYPE svg PUBLIC "-//W3C//DTD SVG 1.1 Tiny//EN" "http://www.w3.org/Graphics/SVG/1.1/DTD/svg11-tiny.dtd">
<svg version="1.1" baseProfile="tiny" id="Layer_1" xmlns="http://www.w3.org/2000/svg" xmlns:xlink="http://www.w3.org/1999/xlink"
	 x="0px" y="0px" width="33.406px" height="33.406px" viewBox="471.719 166.531 33.406 33.406" xml:space="preserve">
<path fill="#FF3132" d="M504.907,183.273c0,9.075-7.359,16.435-16.434,16.435c-9.073,0-16.433-7.36-16.433-16.435
	c0-9.071,7.359-16.427,16.433-16.427C497.548,166.847,504.907,174.202,504.907,183.273z"/>
<g>
	<g>
		<polygon fill="#FFFFFF" points="480.986,170.851 482.508,170.851 483.489,174.41 483.585,174.41 484.517,170.851 486.053,170.851 
			484.296,176.061 484.296,179.754 482.784,179.754 482.784,176.227 		"/>
		<path fill="#FFFFFF" d="M486.162,174.689c0-0.511,0.18-0.916,0.543-1.216c0.359-0.301,0.847-0.452,1.456-0.452
			c0.555,0,1.01,0.159,1.365,0.477c0.353,0.317,0.531,0.728,0.531,1.228v3.393c0,0.562-0.174,1.001-0.521,1.322
			c-0.351,0.319-0.827,0.48-1.438,0.48c-0.585,0-1.057-0.166-1.409-0.495c-0.35-0.33-0.527-0.775-0.527-1.333V174.689
			L486.162,174.689z M487.542,178.217c0,0.18,0.05,0.318,0.145,0.418c0.095,0.099,0.232,0.147,0.41,0.147
			c0.182,0,0.324-0.051,0.433-0.15c0.107-0.102,0.16-0.24,0.16-0.415v-3.578c0-0.144-0.055-0.259-0.164-0.349
			c-0.11-0.088-0.253-0.132-0.429-0.132c-0.166,0-0.298,0.043-0.4,0.132c-0.101,0.089-0.153,0.205-0.153,0.349L487.542,178.217
			L487.542,178.217z"/>
		<path fill="#FFFFFF" d="M494.975,173.186v6.568h-1.342v-0.726c-0.245,0.267-0.503,0.472-0.772,0.611
			c-0.267,0.14-0.527,0.21-0.777,0.21c-0.313,0-0.545-0.099-0.703-0.294c-0.155-0.196-0.234-0.488-0.234-0.88v-5.489h1.339v5.036
			c0,0.155,0.031,0.268,0.087,0.337c0.056,0.069,0.148,0.105,0.273,0.105c0.098,0,0.224-0.047,0.374-0.139
			c0.149-0.092,0.288-0.21,0.414-0.354v-4.985H494.975z"/>
	</g>
	<g>
		<path fill="#FFFFFF" d="M490.87,187.85c-0.086,0-0.17,0.019-0.253,0.059c-0.082,0.039-0.164,0.1-0.246,0.182v3.715
			c0.097,0.096,0.191,0.169,0.284,0.21c0.09,0.042,0.186,0.065,0.286,0.065c0.146,0,0.254-0.042,0.322-0.128
			c0.067-0.083,0.104-0.218,0.104-0.41v-3.079c0-0.201-0.042-0.354-0.126-0.458C491.155,187.902,491.03,187.85,490.87,187.85z"/>
		<path fill="#FFFFFF" d="M494.979,187.872c-0.189,0-0.326,0.053-0.409,0.165c-0.082,0.104-0.122,0.284-0.122,0.534v0.603h1.053
			v-0.603c0-0.25-0.042-0.43-0.126-0.534C495.295,187.925,495.159,187.872,494.979,187.872z"/>
		<path fill="#FFFFFF" d="M497.697,183.229c-0.979-0.962-9.227-0.975-9.227-0.974c0,0-8.247,0.012-9.229,0.974
			c-0.98,0.963-0.983,5.719-0.983,5.746v0.009c0,0.027,0.003,4.774,0.983,5.738c0.981,0.961,9.229,0.982,9.229,0.982
			s8.248-0.021,9.227-0.982c0.986-0.967,0.993-5.747,0.993-5.747C498.69,188.948,498.68,184.192,497.697,183.229z M484.343,186.031
			h-1.388v6.908h-1.345v-6.908h-1.389v-1.174h4.121V186.031L484.343,186.031z M488.271,192.939h-1.19v-0.656
			c-0.223,0.244-0.45,0.428-0.689,0.553c-0.238,0.128-0.468,0.189-0.692,0.189c-0.277,0-0.481-0.087-0.623-0.266
			c-0.139-0.179-0.209-0.442-0.209-0.799v-4.985h1.191v4.574c0,0.142,0.025,0.243,0.074,0.306c0.052,0.064,0.133,0.095,0.244,0.095
			c0.087,0,0.199-0.042,0.333-0.125c0.135-0.084,0.256-0.19,0.371-0.319v-4.53h1.19V192.939L488.271,192.939z M492.594,191.707
			c0,0.422-0.093,0.746-0.279,0.971c-0.187,0.226-0.458,0.337-0.811,0.337c-0.233,0-0.441-0.042-0.623-0.129
			c-0.182-0.086-0.354-0.221-0.51-0.404v0.457h-1.204v-8.082h1.204v2.603c0.162-0.181,0.332-0.321,0.512-0.414
			c0.181-0.095,0.364-0.142,0.549-0.142c0.378,0,0.666,0.127,0.863,0.38c0.201,0.254,0.299,0.627,0.299,1.115V191.707
			L492.594,191.707z M496.727,190.101h-2.279v1.124c0,0.314,0.039,0.531,0.116,0.654c0.08,0.121,0.215,0.181,0.405,0.181
			c0.196,0,0.334-0.052,0.413-0.155c0.078-0.103,0.119-0.329,0.119-0.68v-0.272h1.226v0.306c0,0.612-0.147,1.072-0.448,1.383
			c-0.298,0.308-0.744,0.46-1.338,0.46c-0.533,0-0.955-0.163-1.261-0.491c-0.307-0.327-0.461-0.777-0.461-1.352v-2.678
			c0-0.516,0.17-0.939,0.507-1.264c0.337-0.326,0.77-0.488,1.306-0.488c0.544,0,0.965,0.151,1.257,0.452
			c0.293,0.301,0.438,0.734,0.438,1.3V190.101L496.727,190.101L496.727,190.101z"/>
	</g>
</g>
</svg>
