<?xml version="1.0" encoding="UTF-8" standalone="no"?>
<!-- Created with Inkscape (http://www.inkscape.org/) -->
<svg id="svg5307" xmlns:rdf="http://www.w3.org/1999/02/22-rdf-syntax-ns#" xmlns="http://www.w3.org/2000/svg" height="48" viewBox="0 0 48 48" width="48" version="1.1" xmlns:cc="http://creativecommons.org/ns#" xmlns:dc="http://purl.org/dc/elements/1.1/">
 <metadata id="metadata5312">
  <rdf:RDF>
   <cc:Work rdf:about="">
    <dc:format>image/svg+xml</dc:format>
    <dc:type rdf:resource="http://purl.org/dc/dcmitype/StillImage"/>
    <dc:title/>
   </cc:Work>
  </rdf:RDF>
 </metadata>
 <g id="layer2">
  <g id="g5997" transform="matrix(1.3244 0 0 1.3244 -6.5043 -4.1931)">
   <path id="path5870-0" d="m21.093 30.797c-1.0484-0.19205-1.9205-0.48434-2.9295-0.98182-3.3099-1.6319-5.5261-4.6069-6.1323-8.2319-0.22516-1.3466-0.14787-3.2724 0.18226-4.5414 1.386-5.3274 6.4926-8.9276 11.886-8.3799 7.8756 0.79981 12.498 9.1907 8.9187 16.19-1.5888 3.1066-4.5415 5.2987-7.998 5.9375-0.9512 0.17578-2.9883 0.17981-3.9275 0.0078z" stroke-opacity="0" fill="#fff"/>
   <g id="g5979" stroke="#bd202d" stroke-width="0.4" fill="#fff">
    <path id="path5923" d="m20.616 34.673c-2.95-0.412-6.353-2.182-8.671-4.508-2.1776-2.187-3.4853-4.592-4.234-7.789-0.2742-1.171-0.3161-5.138-0.0665-6.299 1.4027-6.5274 6.6995-11.533 13.214-12.488 1.011-0.14826 1.7535-0.1814 2.8524-0.12731 7.2981 0.35923 13.229 5.4434 14.817 12.702 0.1628 0.7441 0.21422 1.4876 0.21179 3.0625-0.0028 1.8469-0.0384 2.2202-0.31739 3.333-0.75622 3.0162-1.9832 5.2784-4.0164 7.4052-2.0502 2.1446-4.6283 3.6536-7.5455 4.4166-1.0176 0.26615-1.4961 0.3173-3.3278 0.35571-1.1766 0.02467-2.4893-0.004-2.9171-0.0638zm5.0914-4.5128c2.412-0.578 4.681-1.995 6.208-3.877 3.733-4.601 3.405-11.154-0.767-15.326-1.444-1.4436-3.273-2.4923-5.297-3.0374-1.425-0.3834-4.248-0.3881-5.62-0.0095-3.244 0.8954-5.945 3.0939-7.438 6.0539-2.3167 4.5949-1.0708 10.592 2.8638 13.784 1.4192 1.1514 3.0433 1.9951 4.6288 2.4045 1.2672 0.32723 4.0709 0.33091 5.4215 0.0072z"/>
    <path id="path5925" d="m21.744 29.805c-1.8105-0.15892-3.8852-1.0388-5.5047-2.3346-3.0097-2.4081-4.4872-6.1969-3.9331-10.086 0.35263-2.4751 1.8126-5.0359 3.8262-6.7114 1.0028-0.83439 3.0709-1.9012 4.3106-2.2237 0.64131-0.16679 1.2541-0.21435 2.6741-0.20756 1.6527 0.00791 1.9522 0.042251 2.9118 0.33401 3.6865 1.1208 6.3779 3.8189 7.5066 7.5254 0.28421 0.93331 0.31924 1.2431 0.3265 2.8876 0.0069 1.578-0.03064 1.9767-0.26222 2.7805-0.56665 1.9666-1.5262 3.6128-2.8903 4.9583-2.3842 2.3518-5.4079 3.3897-8.9655 3.0774z"/>
   </g>
   <g id="g5951" transform="matrix(.61595 0 0 .74450 16.667 4.5147)" stroke="#bd202d" fill="#bd202d">
    <path id="path5905" d="m3.1277 39.112c-0.2999-0.16-0.8756-0.62-1.2794-1.023l-0.73416-0.73231v-7.5517-7.5517l-0.42246-0.50101-0.42246-0.50101v-10.7-10.7l2.7988 2.7973 2.7988 2.7973v7.7146 7.7146l0.52808 0.52014 0.52808 0.52014v7.623 7.623l-0.45643 0.61891c-1.1481 1.557-2.1594 1.96-3.3389 1.332zm1.6547-0.90331c0.18131-0.13377 0.52323-0.47747 0.75982-0.76377l0.43016-0.52056v-7.3372-7.3372l-0.33756-0.34828-0.33756-0.34828h-1.4168-1.4168l0.065576-2.3499c0.036-1.293 0.1182-5.291 0.1825-8.886l0.1169-6.5346-0.8044-0.8044-0.8045-0.8045v9.348 9.348l0.42246 0.51124 0.42246 0.51124v7.5708 7.5708l0.44886 0.43433c1.0237 0.99057 1.6513 1.1951 2.2689 0.73943zm0.02822-24.976v-7.4759l-0.566-0.5595-0.566-0.559-0.067 2.6749c-0.0369 1.4712-0.0918 4.5045-0.1219 6.7415-0.0302 2.236-0.0816 4.648-0.1144 5.359l-0.059523 1.2938h0.74741 0.74741v-7.4759z" stroke-width=".052808"/>
    <path id="path5919" d="m3.6851 38.236c-0.1961-0.087-0.6106-0.383-0.9211-0.658l-0.5645-0.501-0.0013-7.567-0.0012-7.566-0.4729-0.595-0.4729-0.594-0.0012-9.21-0.0013-9.2095 0.7561 0.7714 0.756 0.7715-0.0899 4.4568c-0.0494 2.4508-0.1296 6.4488-0.1781 8.8838l-0.088312 4.4271h1.4203c1.401 0 1.4247 0.0045 1.7397 0.33334l0.31936 0.33334v7.2905 7.2905l-0.42831 0.52269c-0.6913 0.844-1.1906 1.075-1.7705 0.82z" stroke-width=".059425"/>
   </g>
   <g id="g5955" transform="matrix(.69563 0 0 .69563 -2.0095 6.0832)" stroke="#bd202d" fill="#bd202d">
    <path id="path5907" d="m43.073 39.02c-0.417-0.316-0.951-1.108-1.39-2.062l-0.4153-0.90185v-9.5385-9.5385l-0.92387-0.86602-0.92387-0.86602v-6.0911-6.0911l0.56175-1.3845c0.30896-0.76149 0.58298-1.3834 0.60892-1.382 0.02594 0.001404 0.32118 0.67587 0.65608 1.4988l0.60892 1.4963v4.1674c0 3.9308 0.0089 4.1788 0.15799 4.367 0.1456 0.18387 0.16867 0.18464 0.29396 0.0098 0.11975-0.16711 0.13597-0.64678 0.13597-4.0222v-3.8325l0.54686-1.2283c0.30077-0.67555 0.58036-1.244 0.62132-1.2633 0.04096-0.01929 0.34289 0.50813 0.67096 1.172l0.59649 1.2071 0.000022 3.8016c0.00002 3.7127 0.0041 3.8078 0.17819 4.0662 0.16638 0.24715 0.19138 0.25257 0.37795 0.08197l0.19978-0.18267v-4.1942-4.1942l0.51697-1.2716c0.28434-0.69938 0.54556-1.3171 0.58052-1.3726 0.03494-0.055556 0.29327 0.44549 0.57405 1.1134l0.51051 1.2145 0.00083 5.7451 0.000819 5.7451-0.88188 1.2265-0.88188 1.2265v9.544 9.544l-0.22294 0.53772c-0.35495 0.8561-0.99934 1.9346-1.3702 2.2932-0.42271 0.40879-1.0192 0.50575-1.3884 0.22569zm1.1705-1.3422c0.20285-0.26093 0.52326-0.80521 0.71203-1.2095l0.3432-0.7351v-9.6047-9.6047l0.88188-1.2265 0.88188-1.2265v-5.4684c0-5.1138-0.0099-5.4855-0.15288-5.7319l-0.153-0.2626-0.183 0.433c-0.179 0.4234-0.183 0.5268-0.183 4.6805v4.2475l-0.31576 0.43028c-0.59961 0.81706-1.0326 0.8162-1.637-0.0033l-0.31496-0.42702v-3.9363-3.9363l-0.2383-0.39833-0.2383-0.39833-0.22364 0.45927-0.22364 0.45927v3.9441 3.9441l-0.33384 0.42088c-0.54544 0.68765-0.87202 0.67732-1.4626-0.04629l-0.30329-0.3716v-4.2778-4.2778l-0.23-0.5745c-0.127-0.3156-0.259-0.5739-0.293-0.5739-0.033-0.0001-0.137 0.2087-0.231 0.464-0.163 0.4468-0.169 0.6764-0.169 6.1377v5.6736l0.92063 0.86523 0.92063 0.86523 0.0032 9.7051 0.0032 9.7051 0.3325 0.66749c0.48674 0.97712 0.61166 1.1787 0.88805 1.4329 0.36895 0.33938 0.58805 0.28599 0.99976-0.24361z" stroke-width=".049608"/>
    <path id="path5921" d="m43.235 37.78c-0.13593-0.14708-0.43941-0.61949-0.67439-1.0498l-0.42724-0.78239v-9.7386-9.7386l-0.95644-0.94801-0.95644-0.94801 0.03786-5.7642c0.02083-3.1703 0.08257-5.8578 0.13721-5.9722 0.15483-0.32412 0.24874-0.25242 0.467 0.35655 0.17622 0.49166 0.20226 1.11 0.20175 4.7902l-0.000588 4.2256 0.40229 0.4392c0.5454 0.59544 0.88329 0.58184 1.4306-0.05759l0.42524-0.49679v-3.9545c0-3.7662 0.06206-4.5599 0.35655-4.5599 0.29371 0 0.35655 0.79287 0.35655 4.4985v3.893l0.36228 0.49262c0.57088 0.77627 1.0152 0.80318 1.6335 0.09894l0.34654-0.39469 0.06981-4.3833c0.06644-4.1718 0.11495-4.9181 0.3197-4.9181 0.19374 0 0.23682 1.0875 0.23808 6.0102l0.0013 5.1189-0.89137 1.2558-0.89137 1.2558v9.6316 9.6316l-0.42248 0.81087c-0.43403 0.83305-0.94435 1.4645-1.1835 1.4645-0.07443 0-0.24654-0.12034-0.38247-0.26741z" stroke-width=".059425"/>
   </g>
  </g>
 </g>
</svg>
