<?xml version="1.0" encoding="UTF-8" standalone="no"?>
<!-- Created with Inkscape (http://www.inkscape.org/) -->
<svg id="svg7183" xmlns:rdf="http://www.w3.org/1999/02/22-rdf-syntax-ns#" xmlns="http://www.w3.org/2000/svg" height="48" viewBox="0 0 48 48" width="48" version="1.1" xmlns:cc="http://creativecommons.org/ns#" xmlns:dc="http://purl.org/dc/elements/1.1/">
 <metadata id="metadata7188">
  <rdf:RDF>
   <cc:Work rdf:about="">
    <dc:format>image/svg+xml</dc:format>
    <dc:type rdf:resource="http://purl.org/dc/dcmitype/StillImage"/>
    <dc:title/>
   </cc:Work>
  </rdf:RDF>
 </metadata>
 <g id="layer1">
  <g id="g7748" fill="#b6124a" stroke-opacity="0" transform="matrix(.18272 0 0 .18272 16.883 17.922)">
   <path id="path7742" d="m38.854 150.56c-0.94286-1.079-2.147-1.9672-2.6758-1.9738-0.52882-0.007-1.1247-0.52613-1.3242-1.1547-0.19951-0.62857-0.59086-1.1428-0.86968-1.1428-0.68001 0-3.416-2.7669-3.416-3.4546 0-0.3-0.50415-0.54545-1.1203-0.54545-0.61619 0-1.4519-0.3981-1.8572-0.88466-0.40525-0.48656-1.344-1.4865-2.0862-2.2221-2.2519-2.232-2.4431-2.4276-3.8831-3.9725-0.765-0.82071-1.619-1.4922-1.8979-1.4922-0.27882 0-0.67017-0.51429-0.86967-1.1429-0.19951-0.62857-0.74119-1.1429-1.2038-1.1429-1.0486 0-19.082-17.943-19.082-18.986 0-0.41875-0.54879-1.1396-1.2195-1.6018-0.67074-0.46224-1.5064-1.1742-1.8571-1.5822-0.35069-0.40799-1.2448-1.3436-1.987-2.0792-2.2531-2.2332-2.4442-2.4288-3.8572-3.9465-0.75071-0.80643-1.3649-1.6174-1.3649-1.802 0-0.3777-1.0531-1.7089-2.1704-2.7435-2.9934-2.7719-3.5439-3.3797-3.5439-3.9122 0-0.33105-0.77143-1.3225-1.7143-2.2033-0.94286-0.88076-1.7143-1.8722-1.7143-2.2033 0-0.33104-0.64286-1.2448-1.4286-2.0305-0.78571-0.78571-1.4286-1.5872-1.4286-1.7811 0-0.19388-0.32143-0.71093-0.71429-1.149-1.6358-1.8241-2.1428-2.5272-2.1428-2.9716 0-0.25817-0.51429-0.84007-1.1429-1.2931-0.62857-0.45305-1.1429-1.2893-1.1429-1.8584 0-0.56906-0.38571-1.1827-0.85714-1.3636-0.47143-0.18091-0.85714-0.72125-0.85714-1.2008 0-0.47951-0.47751-1.2877-1.0611-1.796-0.58361-0.5083-1.2438-1.5027-1.4671-2.2099-0.22328-0.70714-0.64578-1.2857-0.93888-1.2857-0.29311 0-0.53292-0.29127-0.53292-0.64726 0-0.356-0.47979-1.0634-1.0662-1.572-0.58641-0.50859-1.2387-1.7102-1.4496-2.6703-0.21087-0.96009-0.88822-2.1095-1.5052-2.5542-0.61701-0.44471-1.1218-1.1375-1.1218-1.5396 0-0.40204-0.22853-0.73099-0.50783-0.73099-0.27931 0-0.67668-0.9-0.88304-2s-0.62069-2-0.92074-2c-0.30004 0-0.54553-0.51429-0.54553-1.1429 0-0.62857-0.25715-1.1429-0.57143-1.1429-0.31429 0-0.57143-0.64286-0.57143-1.4286 0-0.78571-0.24139-1.4286-0.53642-1.4286s-0.70994-1.1571-0.92202-2.5714c-0.21209-1.4143-0.61356-2.5714-0.89216-2.5714s-0.50654-0.64286-0.50654-1.4286c0-0.78571-0.25715-1.4286-0.57143-1.4286-0.31429 0-0.57143-0.87857-0.57143-1.9524s-0.32143-2.0595-0.71429-2.1903c-0.56287-0.1875-0.75141-11.444-0.88945-53.103l-0.17517-52.865 5.263-0.37358c2.8946-0.20547 6.5092-0.37358 8.0323-0.37358s2.7694-0.25714 2.7694-0.57143c0-0.31746 1.5238-0.57143 3.4286-0.57143s3.4286-0.25397 3.4286-0.57143c0-0.31428 1.1571-0.57143 2.5714-0.57143s2.5714-0.22693 2.5714-0.50429 1.9286-0.68502 4.2857-0.9059 4.2857-0.63681 4.2857-0.92428 0.9-0.52267 2-0.52267 2-0.25714 2-0.57143c0-0.31428 0.9-0.57143 2-0.57143s2-0.22751 2-0.50559c0-0.27807 1.4143-0.68229 3.1429-0.89826s3.1429-0.63131 3.1429-0.92298 0.64285-0.53031 1.4286-0.53031c0.78571 0 1.4286-0.25714 1.4286-0.57143 0-0.31428 0.51428-0.57143 1.1429-0.57143 0.62857 0 1.1428-0.22428 1.1428-0.4984s1.0286-0.66287 2.2857-0.8639 2.2857-0.6196 2.2857-0.93018c0-0.31057 0.77143-0.56468 1.7143-0.56468 0.94285 0 1.7143-0.25714 1.7143-0.57143 0-0.31428 0.38572-0.57143 0.85715-0.57143 0.47142 0 0.85714-0.22852 0.85714-0.50783s0.9-0.67668 2-0.88304 2-0.62069 2-0.92074c0-0.30004 0.49696-0.54554 1.1044-0.54554 0.60739 0 1.259-0.48731 1.448-1.0829 0.20678-0.6515 1.0832-1.2216 2.1999-1.4311 1.0209-0.19153 2.2261-0.86136 2.6781-1.4885 0.45203-0.62716 1.2519-1.1403 1.7774-1.1403 0.52556 0 1.1036-0.38571 1.2845-0.85714s0.7945-0.85714 1.3636-0.85714c0.56905 0 1.4053-0.51428 1.8584-1.1429 0.45306-0.62857 1.035-1.1429 1.2931-1.1429 0.73909 0 2.2803-1.3673 4.5087-4 0.79587-0.94026 1.2968-1.1844 1.4656-0.71429 0.14101 0.39286 0.5038 0.71429 0.80618 0.71429s1.1926 0.64286 1.9784 1.4286c0.78572 0.78572 1.6567 1.4286 1.9355 1.4286 0.27882 0 0.67017 0.51429 0.86968 1.1429 0.1995 0.62857 0.85968 1.1429 1.4671 1.1429 0.60739 0 1.1044 0.23982 1.1044 0.53292 0 0.29311 0.57857 0.7156 1.2857 0.93888 0.70714 0.22328 1.7016 0.88346 2.2099 1.4671 0.50829 0.58361 1.2154 1.0611 1.5714 1.0611 0.35599 0 0.64726 0.25714 0.64726 0.57143 0 0.31428 0.49592 0.57143 1.102 0.57143 0.60613 0 1.4878 0.38572 1.9592 0.85714 0.47143 0.47143 1.1327 0.85714 1.4694 0.85714 0.33674 0 0.61225 0.25714 0.61225 0.57143 0 0.31428 0.51428 0.57143 1.1429 0.57143 0.62857 0 1.1428 0.24549 1.1428 0.54554 0 0.30004 0.9 0.71438 2 0.92074s2 0.60373 2 0.88304 0.38572 0.50783 0.85715 0.50783c0.47142 0 0.85714 0.25714 0.85714 0.57143s0.51428 0.57143 1.1429 0.57143c0.62857 0 1.1428 0.22428 1.1428 0.4984s1.0286 0.66287 2.2857 0.8639 2.2857 0.6196 2.2857 0.93018c0 0.31057 0.77143 0.56468 1.7143 0.56468 0.94285 0 1.7143 0.25714 1.7143 0.57143s0.64286 0.57143 1.4286 0.57143c0.78571 0 1.4286 0.23301 1.4286 0.51781 0 0.28479 1.2857 0.69464 2.8571 0.91076 1.5714 0.21613 2.8571 0.62597 2.8571 0.91076s0.9 0.51781 2 0.51781 2 0.25714 2 0.57143 0.9 0.57143 2 0.57143 2 0.23947 2 0.53216 2.0571 0.7116 4.5714 0.93093c2.5143 0.21932 4.5714 0.62271 4.5714 0.89641s1.1571 0.49764 2.5714 0.49764 2.5714 0.25714 2.5714 0.57143c0 0.31746 1.5238 0.57143 3.4286 0.57143 1.8857 0 3.4286 0.22414 3.4286 0.4981 0 0.27395 3.3538 0.68358 7.4529 0.91028l7.4529 0.41219-0.16718 54.328c-0.13181 42.835-0.31828 54.378-0.88146 54.566-0.39286 0.13087-0.71428 0.85938-0.71428 1.6189 0 0.75953-0.25715 1.381-0.57143 1.381-0.31429 0-0.57143 0.77143-0.57143 1.7143 0 0.94286-0.22428 1.7143-0.4984 1.7143s-0.66287 1.0286-0.86389 2.2857c-0.20103 1.2571-0.61961 2.2857-0.93018 2.2857s-0.56467 0.51428-0.56467 1.1429c0 0.62857-0.25715 1.1429-0.57143 1.1429-0.31429 0-0.57143 0.38571-0.57143 0.85714s-0.22853 0.85714-0.50784 0.85714c-0.2793 0-0.67667 0.9-0.88303 2s-0.6207 2-0.92074 2-0.54553 0.51428-0.54553 1.1429c0 0.62857-0.25715 1.1429-0.57143 1.1429-0.31429 0-0.57143 0.27551-0.57143 0.61225 0 0.33673-0.38572 0.99796-0.85714 1.4694-0.47143 0.47143-0.85715 1.3357-0.85715 1.9207 0 0.58494-0.51428 1.2268-1.1428 1.4263-0.62858 0.1995-1.1429 0.85969-1.1429 1.4671 0 0.60739-0.23982 1.1043-0.53292 1.1043-0.29311 0-0.71561 0.57857-0.93889 1.2857-0.22328 0.70714-0.88346 1.7016-1.4671 2.2099-0.58361 0.50829-1.0611 1.1052-1.0611 1.3265s-0.38572 0.78808-0.85714 1.2595c-0.47143 0.47143-0.85715 1.3357-0.85715 1.9207 0 0.58494-0.51428 1.2268-1.1428 1.4263-0.62858 0.1995-1.1429 0.76592-1.1429 1.2587s-0.64286 1.4917-1.4286 2.2199c-0.78572 0.72818-1.4286 1.6609-1.4286 2.0728 0 0.41184-0.64286 1.2316-1.4286 1.8216-0.78571 0.59005-1.4286 1.4943-1.4286 2.0095 0 0.51517-0.54579 1.3149-1.2129 1.7771-2.087 1.4462-2.7871 2.3134-2.7871 3.4527 0 0.60612-0.24545 1.102-0.54545 1.102-0.68768 0-3.4545 2.736-3.4545 3.416 0 0.27882-0.51429 0.67017-1.1429 0.86967-0.62857 0.19951-1.1429 0.74539-1.1429 1.2131 0 0.46768-3.0857 3.9285-6.8571 7.6907s-6.8571 7.0942-6.8571 7.4044c0 0.72632-5.5531 6.2633-6.2815 6.2633-0.30369 0-4.1447 3.6-8.5356 8s-8.1356 8-8.3216 8c-0.52719 0-2.7824 2.0085-5.2626 4.6868-1.0346 1.1173-2.3658 2.1704-2.7435 2.1704-0.18469 0-0.97866 0.64286-1.7644 1.4286-0.78571 0.78571-1.6567 1.4286-1.9355 1.4286-0.27882 0-0.67017 0.51428-0.86967 1.1428-0.53411 1.6828-2.0582 1.3507-4-0.87153zm5.1483-10.259c0.93986-1.0932 2.0214-1.9932 2.4034-2 0.38202-0.007 2.4946-1.8124 4.6946-4.0124s4.2543-4 4.5652-4c0.31084 0 1.1911-0.67149 1.9561-1.4922s1.648-1.7494 1.9623-2.0636l2-2 2-2 1.9208-1.9208 2.0792-2.0792 2-2 2-2 2.1584-2.1584 2-2c0.31429-0.31428 1.143-1.1376 1.8416-1.8296 0.69857-0.69201 1.5571-1.592 1.9077-2 0.35069-0.40799 1.1864-1.12 1.8571-1.5822 0.67074-0.46224 1.2195-1.1993 1.2195-1.638 0-0.43863 1.8-2.5552 4-4.7034s4-4.1669 4-4.4859c0-0.31898 0.9-1.48 2-2.58s2-2.254 2-2.5645c0-0.31048 0.64286-1.2074 1.4286-1.9931 0.78572-0.78571 1.4286-1.5797 1.4286-1.7644 0-0.32203 0.60435-1.1224 2.1428-2.838 0.39286-0.43807 0.71429-0.95512 0.71429-1.149s0.64286-0.99536 1.4286-1.7811c0.78572-0.78571 1.4286-1.7458 1.4286-2.1336 0-0.38776 0.51429-1.0757 1.1429-1.5287 0.62857-0.45305 1.1429-1.035 1.1429-1.2931 0-0.44437 0.50705-1.1475 2.1428-2.9716 0.39286-0.43807 0.71429-1.0152 0.71429-1.2826 0-0.26735 0.51429-0.85677 1.1429-1.3098 0.62857-0.45305 1.1428-1.2893 1.1428-1.8584 0-0.56906 0.38572-1.1827 0.85715-1.3636 0.47143-0.18091 0.85714-0.81569 0.85714-1.4106 0-0.59494 0.25714-1.0817 0.57143-1.0817 0.31428 0 0.57143-0.27551 0.57143-0.61225 0-0.33673 0.38571-0.99796 0.85714-1.4694 0.47143-0.47143 0.85714-1.3531 0.85714-1.9592 0-0.60612 0.25715-1.102 0.57143-1.102 0.31429 0 0.57143-0.38572 0.57143-0.85714 0-0.47143 0.25714-0.85714 0.57143-0.85714 0.31428 0 0.57143-0.51429 0.57143-1.1429 0-0.62857 0.22428-1.1429 0.49839-1.1429 0.27412 0 0.66288-1.0286 0.8639-2.2857s0.6196-2.2857 0.93018-2.2857c0.31057 0 0.56467-0.77143 0.56467-1.7143 0-0.94286 0.25714-1.7143 0.57143-1.7143 0.31428 0 0.57143-0.62143 0.57143-1.381 0-0.75952 0.27249-1.4718 0.60554-1.5828 0.33306-0.11102 0.75589-2.1896 0.93963-4.619 0.18374-2.4295 0.55409-4.4172 0.82302-4.4172 0.26892 0 0.48895-20.829 0.48895-46.286v-46.286h-2.8571c-1.5714 0-2.8572-0.25714-2.8572-0.57143 0-0.32234-1.619-0.57143-3.7143-0.57143-2.0952 0-3.7143-0.24908-3.7143-0.57143 0-0.31428-1.2857-0.57143-2.8571-0.57143s-2.8571-0.22394-2.8571-0.49764-2.0572-0.67709-4.5714-0.89641c-2.5143-0.21932-4.5714-0.63824-4.5714-0.93093s-0.9-0.53216-2-0.53216-2-0.25714-2-0.57143c0-0.31428-0.9-0.57143-2-0.57143s-2-0.22393-2-0.49762-1.5429-0.67217-3.4286-0.88552c-1.8857-0.21334-3.4286-0.63227-3.4286-0.93095s-0.64286-0.54305-1.4286-0.54305c-0.78572 0-1.4286-0.25714-1.4286-0.57143 0-0.31428-0.77143-0.57143-1.7143-0.57143-0.94286 0-1.7143-0.2541-1.7143-0.56468 0-0.31057-1.0286-0.72915-2.2857-0.93018-1.2572-0.20102-2.2857-0.58978-2.2857-0.8639s-0.51428-0.4984-1.1428-0.4984c-0.62858 0-1.1429-0.25714-1.1429-0.57143 0-0.31428-0.38572-0.57143-0.85714-0.57143-0.47143 0-0.85715-0.22328-0.85715-0.49619 0-0.2729-1.0873-0.64203-2.4163-0.82028s-2.5075-0.59782-2.619-0.93238c-0.11152-0.33456-0.69562-0.60829-1.298-0.60829s-1.0952-0.25714-1.0952-0.57143c0-0.31428-0.38571-0.57143-0.85714-0.57143s-0.85714-0.25224-0.85714-0.56054-0.64286-0.72189-1.4286-0.91909c-0.78571-0.1972-1.4286-0.58782-1.4286-0.86803 0-0.28022-0.51428-0.50948-1.1428-0.50948-0.62858 0-1.1429-0.25714-1.1429-0.57143 0-0.31428-0.27551-0.57143-0.61225-0.57143-0.33673 0-0.99796-0.38571-1.4694-0.85714-0.47142-0.47143-1.3357-0.85714-1.9207-0.85714-0.58494 0-1.2268-0.51429-1.4263-1.1429-0.19951-0.62857-0.76592-1.1429-1.2587-1.1429s-1.4917-0.64286-2.2199-1.4286c-1.3084-1.4117-3.0928-1.9285-3.0928-0.89565 0 0.29311-0.57857 0.7156-1.2857 0.93888-0.70714 0.22328-1.7016 0.88346-2.2099 1.4671-0.50829 0.58361-1.1052 1.0611-1.3265 1.0611s-0.78808 0.38571-1.2595 0.85714-1.3357 0.85714-1.9207 0.85714c-0.58494 0-1.2268 0.51428-1.4263 1.1429-0.19951 0.62857-0.85969 1.1429-1.4671 1.1429-0.60739 0-1.1044 0.24549-1.1044 0.54554 0 0.30004-0.9 0.71438-2 0.92074s-2 0.60373-2 0.88304-0.38572 0.50783-0.85714 0.50783c-0.47143 0-0.85715 0.25714-0.85715 0.57143s-0.51428 0.57143-1.1428 0.57143c-0.62858 0-1.1429 0.24549-1.1429 0.54554 0 0.30004-0.9 0.71438-2 0.92074s-2 0.60373-2 0.88304-0.38572 0.50783-0.85714 0.50783c-0.47143 0-0.85715 0.25714-0.85715 0.57143s-0.77143 0.57143-1.7143 0.57143c-0.94286 0-1.7143 0.2541-1.7143 0.56468 0 0.31057-1.0286 0.72915-2.2857 0.93018-1.2572 0.20102-2.2857 0.58978-2.2857 0.8639s-0.77143 0.4984-1.7143 0.4984c-0.94286 0-1.7143 0.25714-1.7143 0.57143s-0.64286 0.57143-1.4286 0.57143c-0.78571 0-1.4286 0.23301-1.4286 0.51781 0 0.28479-1.2857 0.69464-2.8571 0.91076-1.5714 0.21613-2.8572 0.62597-2.8572 0.91076s-0.9 0.51781-2 0.51781-2 0.25714-2 0.57143-0.9 0.57143-2 0.57143-2 0.23947-2 0.53216-2.0571 0.7116-4.5714 0.93093c-2.5143 0.21932-4.5714 0.62271-4.5714 0.89641s-1.4143 0.49764-3.1429 0.49764-3.1429 0.25714-3.1429 0.57143c0 0.31746-1.5238 0.57143-3.4286 0.57143s-3.4286 0.25397-3.4286 0.57143c0 0.31428-1.2976 0.57143-2.8835 0.57143h-2.8835l0.16924 49.81c0.13326 39.219 0.32112 49.86 0.88353 50.048 0.39286 0.13086 0.71429 0.85937 0.71429 1.6189 0 0.75952 0.25714 1.381 0.57143 1.381 0.31428 0 0.57143 0.64286 0.57143 1.4286 0 0.78572 0.22794 1.4286 0.50654 1.4286s0.68007 1.1571 0.89216 2.5714c0.21208 1.4143 0.62699 2.5714 0.92202 2.5714s0.53642 0.38571 0.53642 0.85714 0.25714 0.85714 0.57143 0.85714c0.31428 0 0.57143 0.51428 0.57143 1.1429 0 0.62857 0.24549 1.1429 0.54553 1.1429 0.30005 0 0.71438 0.9 0.92074 2s0.60373 2 0.88304 2c0.2793 0 0.50783 0.29127 0.50783 0.64726s0.47979 1.0634 1.0662 1.572c0.58641 0.50859 1.2387 1.7102 1.4496 2.6703 0.21087 0.96008 0.88823 2.1095 1.5052 2.5542 0.61701 0.44471 1.1218 1.0198 1.1218 1.278 0 0.44437 0.50705 1.1475 2.1428 2.9716 0.39286 0.43807 0.71429 1.0152 0.71429 1.2826 0 0.26736 0.51428 0.85677 1.1429 1.3098 0.62857 0.45305 1.1428 1.2452 1.1428 1.7604 0 0.51517 0.64286 1.4194 1.4286 2.0095 0.78572 0.59005 1.4286 1.4098 1.4286 1.8216 0 0.41184 0.64285 1.3446 1.4286 2.0728 0.78571 0.72818 1.4286 1.7271 1.4286 2.2199 0 0.49278 0.52485 1.0625 1.1663 1.2661 0.69235 0.21974 1.3019 1.0482 1.5 2.0385 0.18352 0.91758 0.54698 1.6683 0.80769 1.6683 0.67552 0 3.3831 2.795 3.3831 3.4923 0 0.32076 1.6714 2.2301 3.7143 4.243 2.0428 2.0129 3.7143 3.9139 3.7143 4.2245 0 0.73112 30.137 30.897 30.867 30.897 0.30452 0 2.3394 1.8 4.522 4s4.1313 4 4.3304 4c0.19908 0 0.74768 0.38572 1.2191 0.85714 1.3464 1.3465 2.6469 1.0194 4.4952-1.1305z"/>
   <path id="path7744" d="m39.695 132.5c-0.46224-0.67075-1.1742-1.5065-1.5822-1.8572-1.0718-0.92129-3.1398-3.0118-3.995-4.0387-0.40525-0.48656-1.241-0.88466-1.8571-0.88466-0.61618 0-1.1203-0.24546-1.1203-0.54546s-0.67149-1.1714-1.4922-1.9364c-0.82072-0.765-1.7494-1.648-2.0636-1.9623l-2-2-2-2-2-2-2-2-2.0792-2.0792-1.9208-1.9208-2-2-2-2c-0.227-0.24-1.05-1.06-1.8295-1.85-0.7791-0.79-1.7504-1.74-2.1584-2.12-1.1173-1.03-2.1704-2.362-2.1704-2.739 0-0.18469-0.64987-1.0313-1.4442-1.8813-1.489-1.5934-1.7091-1.8187-3.8571-3.9465-1.7397-1.7234-2.6987-2.9103-2.6987-3.3401 0-0.19844-1.1572-1.4854-2.5714-2.8599-1.4143-1.3745-2.5714-2.7782-2.5714-3.1192 0-0.34102-0.64286-1.2158-1.4286-1.944-0.78572-0.72818-1.4286-1.7271-1.4286-2.2199 0-0.49278-0.52485-1.0625-1.1663-1.2661-0.69235-0.21974-1.3019-1.0482-1.5-2.0385-0.18351-0.91758-0.51932-1.6683-0.74623-1.6683-0.8516 0-2.8732-2.1706-2.8732-3.085 0-0.523-0.38571-1.0989-0.85714-1.2798-0.47143-0.18091-0.85714-0.72125-0.85714-1.2008 0-0.47951-0.47751-1.2877-1.0611-1.796-0.58361-0.5083-1.2438-1.5027-1.4671-2.2099-0.22328-0.70714-0.64578-1.2857-0.93888-1.2857-0.29311 0-0.53292-0.38572-0.53292-0.85714 0-0.47143-0.25715-0.85714-0.57143-0.85714-0.31429 0-0.57143-0.51429-0.57143-1.1429 0-0.62857-0.25225-1.1429-0.56054-1.1429-0.3083 0-0.72189-0.64286-0.91909-1.4286-0.1972-0.78571-0.58782-1.4286-0.86803-1.4286-0.28022 0-0.50948-0.51429-0.50948-1.1429 0-0.62857-0.25715-1.1429-0.57143-1.1429-0.31429 0-0.57143-0.38572-0.57143-0.85714 0-0.47143-0.22853-0.85714-0.50783-0.85714-0.27931 0-0.67668-0.9-0.88304-2s-0.62069-2-0.92074-2c-0.30004 0-0.54553-0.64286-0.54553-1.4286 0-0.78572-0.25715-1.4286-0.57143-1.4286-0.31429 0-0.57143-0.51429-0.57143-1.1429 0-0.62857-0.23105-1.1429-0.51343-1.1429-0.28239 0-0.6942-1.8-0.91514-4s-0.63275-4-0.91514-4c-0.29918 0-0.51343-18.361-0.51343-44v-44h3.4286c1.8857 0 3.4286-0.22025 3.4286-0.48944s2.3786-0.66771 5.2857-0.8856c2.9072-0.21789 5.3714-0.6405 5.4762-0.93913 0.10477-0.29864 1.3262-0.54297 2.7143-0.54297s2.5238-0.25714 2.5238-0.57143c0-0.31428 0.9-0.57143 2-0.57143s2-0.24437 2-0.54305 1.5429-0.71761 3.4286-0.93095 3.4286-0.61183 3.4286-0.88552 0.77143-0.49762 1.7143-0.49762c0.94285 0 1.7143-0.25714 1.7143-0.57143 0-0.31428 0.64286-0.57143 1.4286-0.57143 0.78572 0 1.4286-0.23301 1.4286-0.51781 0-0.28479 1.2857-0.69464 2.8571-0.91076 1.5714-0.21613 2.8571-0.62597 2.8571-0.91076s0.51429-0.51781 1.1429-0.51781c0.62857 0 1.1429-0.25714 1.1429-0.57143 0-0.31428 0.64285-0.57143 1.4286-0.57143 0.78571 0 1.4286-0.22852 1.4286-0.50783s0.9-0.67668 2-0.88304 2-0.62069 2-0.92074c0-0.30004 0.64286-0.54554 1.4286-0.54554 0.78571 0 1.4286-0.25714 1.4286-0.57143 0-0.31428 0.51429-0.57143 1.1429-0.57143 0.62857 0 1.1429-0.22927 1.1429-0.50948 0-0.28022 0.64285-0.67083 1.4286-0.86803 0.78571-0.1972 1.4286-0.61079 1.4286-0.91909s0.51428-0.56054 1.1429-0.56054c0.62857 0 1.1428-0.25714 1.1428-0.57143 0-0.31428 0.38572-0.57143 0.85715-0.57143 0.47142 0 0.85714-0.25714 0.85714-0.57143 0-0.31428 0.52235-0.57143 1.1608-0.57143 0.63844 0 1.3088-0.38572 1.4897-0.85714 0.1809-0.47143 0.72124-0.85714 1.2008-0.85714 0.47951 0 1.2877-0.4775 1.796-1.0611 0.50829-0.58361 1.5027-1.2438 2.2099-1.4671l1.2857-0.40596v106.04c0 58.321-0.20038 106.04-0.44528 106.04-0.24491 0-0.82348-0.54879-1.2857-1.2195z"/>
   <path id="path7746" d="m41.426 27.144c0-72.044 0.18662-105.43 0.58936-105.43 0.32415 0 0.73737 0.38571 0.91828 0.85714 0.1809 0.47143 0.75892 0.85714 1.2845 0.85714 0.52556 0 1.3254 0.51313 1.7774 1.1403 0.45203 0.62716 1.6572 1.297 2.6781 1.4885 1.1167 0.2095 1.9932 0.77964 2.1999 1.4311 0.18904 0.5956 0.84066 1.0829 1.4481 1.0829 0.60739 0 1.1044 0.24549 1.1044 0.54554 0 0.30004 0.9 0.71438 2 0.92074s2 0.60373 2 0.88304 0.38571 0.50783 0.85714 0.50783 0.85714 0.25714 0.85714 0.57143 0.51429 0.57143 1.1429 0.57143c0.62857 0 1.1429 0.22795 1.1429 0.50655s1.1571 0.68007 2.5714 0.89216c1.4143 0.21208 2.5714 0.627 2.5714 0.92202 0 0.29503 0.38572 0.53642 0.85715 0.53642 0.47142 0 0.85714 0.25714 0.85714 0.57143s0.64286 0.57143 1.4286 0.57143c0.78571 0 1.4286 0.22751 1.4286 0.50559 0 0.27807 1.4143 0.68229 3.1429 0.89826s3.1429 0.63131 3.1429 0.92298 0.64285 0.53031 1.4286 0.53031c0.78572 0 1.4286 0.25714 1.4286 0.57143s0.64286 0.57143 1.4286 0.57143c0.78572 0 1.4286 0.23668 1.4286 0.52595s1.6714 0.70494 3.7143 0.92371 3.7143 0.62495 3.7143 0.90262 0.9 0.50486 2 0.50486 2 0.25714 2 0.57143 1.0286 0.57143 2.2857 0.57143 2.2857 0.23653 2.2857 0.52563 2.5714 0.70794 5.7143 0.93076 5.7143 0.62914 5.7143 0.90294 1.5429 0.49782 3.4286 0.49782h3.4286v43.143c0 28.381-0.19552 43.143-0.57143 43.143-0.31429 0-0.57143 1.0286-0.57143 2.2857s-0.22719 2.2857-0.50486 2.2857-0.68386 1.6714-0.90263 3.7143-0.63444 3.7143-0.92371 3.7143-0.52594 0.38571-0.52594 0.85714-0.25715 0.85714-0.57143 0.85714c-0.31429 0-0.57143 0.51429-0.57143 1.1429 0 0.62857-0.22428 1.1429-0.4984 1.1429s-0.653 0.96689-0.84197 2.1486c-0.19145 1.1973-0.85633 2.5182-1.5016 2.9833-0.63691 0.45906-1.158 1.2922-1.158 1.8514 0 0.55919-0.24549 1.0167-0.54554 1.0167-0.30004 0-0.71273 0.89123-0.91708 1.9805-0.23023 1.2273-0.78342 2.1112-1.4545 2.3242-0.59561 0.18904-1.0829 0.84066-1.0829 1.4481 0 0.60739-0.23982 1.1043-0.53292 1.1043-0.29311 0-0.71561 0.57857-0.93889 1.2857-0.22328 0.70714-0.88346 1.7016-1.4671 2.2099-0.58361 0.50829-1.0611 1.1052-1.0611 1.3265s-0.38572 0.78808-0.85714 1.2595c-0.47143 0.47143-0.85715 1.3531-0.85715 1.9592 0 0.60612-0.2178 1.102-0.48399 1.102-0.86407 0-2.9446 2.1105-2.9446 2.987 0 0.46911-0.64286 1.3357-1.4286 1.9257-0.78571 0.59005-1.4286 1.402-1.4286 1.8044 0 0.40238-0.9 1.6056-2 2.6739-1.1 1.0682-2 2.1031-2 2.2997 0 0.77943-3.8632 4.8807-4.5974 4.8807-0.3 0-0.54545 0.50415-0.54545 1.1203 0 0.61618-0.3981 1.4519-0.88466 1.8571-0.48656 0.40525-1.5221 1.3797-2.3013 2.1654-1.7511 1.7659-1.9053 1.9201-3.6712 3.6712-1.8596 1.8441-2.8571 3.0562-2.8571 3.4719 0 0.58234-18.795 19.143-19.384 19.143-0.31007 0-1.1897 0.67149-1.9547 1.4922-1.44 1.5449-1.6312 1.7405-3.8831 3.9725-0.74214 0.73557-1.6585 1.6712-2.0363 2.0792-1.2297 1.3279-2.3954 2.1704-3.0032 2.1704-0.32755 0-0.59555 0.25715-0.59555 0.57143 0 0.31429-0.25714 0.57143-0.57143 0.57143-0.37888 0-0.57142-35.524-0.57142-105.43z" fill-opacity=".68627"/>
  </g>
 </g>
</svg>
